<svg
    width="229"
    height="453"
    viewBox="0 0 229 453"
    fill="none"
    xmlns="http://www.w3.org/2000/svg"
>
<g filter="url(#filter0_ii)">
<path
            fill-rule="evenodd"
            clip-rule="evenodd"
            d="M226.55 16.2916C226.55 8.84187 220.741 2.70599 213.299 2.38345C193.039 1.50544 152.542 0 113.05 0C73.8117 0 34.5737 1.48609 14.7728 2.36639C7.34047 2.69681 1.54978 8.82722 1.54978 16.2669V111.313L0.442739 111.201C0.442739 111.201 -0.000976562 111.123 -0.000976562 126C-0.000976562 140.877 0.442739 140.799 0.442739 140.799L1.54978 140.711V437.771C1.54978 443.559 6.00791 448.347 11.7856 448.682C30.2429 449.751 71.0499 451.824 112.479 452C154.192 452.177 197.013 450.428 216.178 449.522C222.008 449.247 226.55 444.434 226.55 438.597V199.711L228.105 199.586V170.47L226.55 170.313V143.711L228.105 143.586V114.47L226.55 114.313V105.711L228.105 105.586V76.4698L226.55 76.3126V16.2916Z"
            fill="white"
        />
</g>
<rect
        x="93.2998"
        y="418.75"
        width="42.5"
        height="17.5"
        rx="8.25"
        fill="#D7D7D7"
        stroke="#C6C6C6"
        stroke-width="1.5"
    />
<path d="M37.0498 427.5H51.0498" stroke="#CFCFCF" stroke-linecap="square" />
<path d="M177.05 427.5H191.05" stroke="#CFCFCF" stroke-linecap="square" />
<g filter="url(#filter1_i)">
<rect x="90.5498" y="16" width="50" height="4" fill="black" fill-opacity="0.2" />
</g>
<path
        fill-rule="evenodd"
        clip-rule="evenodd"
        d="M217.8 39C218.214 39 218.55 39.3358 218.55 39.75V407.25C218.55 407.664 218.214 408 217.8 408H10.2998C9.88559 408 9.54981 407.664 9.54981 407.25L9.54981 39.75C9.54981 39.3358 9.88559 39 10.2998 39H217.8Z"
        fill="black"
    />
<path
        fill-rule="evenodd"
        clip-rule="evenodd"
        d="M217.8 39C218.214 39 218.55 39.3358 218.55 39.75V407.25C218.55 407.664 218.214 408 217.8 408H10.2998C9.88559 408 9.54981 407.664 9.54981 407.25L9.54981 39.75C9.54981 39.3358 9.88559 39 10.2998 39H217.8Z"
        fill="url(#paint0_linear)"
    />
<defs>
<filter
            id="filter0_ii"
            x="-2.00098"
            y="0"
            width="232.106"
            height="452.012"
            filterUnits="userSpaceOnUse"
            color-interpolation-filters="sRGB"
        >
<feFlood flood-opacity="0" result="BackgroundImageFix" />
<feBlend mode="normal" in="SourceGraphic" in2="BackgroundImageFix" result="shape" />
<feColorMatrix
                in="SourceAlpha"
                type="matrix"
                values="0 0 0 0 0 0 0 0 0 0 0 0 0 0 0 0 0 0 127 0"
                result="hardAlpha"
            />
<feOffset dx="2" />
<feGaussianBlur stdDeviation="3" />
<feComposite in2="hardAlpha" operator="arithmetic" k2="-1" k3="1" />
<feColorMatrix type="matrix" values="0 0 0 0 1 0 0 0 0 1 0 0 0 0 1 0 0 0 0.1 0" />
<feBlend mode="normal" in2="shape" result="effect1_innerShadow" />
<feColorMatrix
                in="SourceAlpha"
                type="matrix"
                values="0 0 0 0 0 0 0 0 0 0 0 0 0 0 0 0 0 0 127 0"
                result="hardAlpha"
            />
<feOffset dx="-2" />
<feGaussianBlur stdDeviation="3" />
<feComposite in2="hardAlpha" operator="arithmetic" k2="-1" k3="1" />
<feColorMatrix type="matrix" values="0 0 0 0 0 0 0 0 0 0 0 0 0 0 0 0 0 0 0.4 0" />
<feBlend mode="normal" in2="effect1_innerShadow" result="effect2_innerShadow" />
</filter>
<filter
            id="filter1_i"
            x="90.5498"
            y="16"
            width="51"
            height="5"
            filterUnits="userSpaceOnUse"
            color-interpolation-filters="sRGB"
        >
<feFlood flood-opacity="0" result="BackgroundImageFix" />
<feBlend mode="normal" in="SourceGraphic" in2="BackgroundImageFix" result="shape" />
<feColorMatrix
                in="SourceAlpha"
                type="matrix"
                values="0 0 0 0 0 0 0 0 0 0 0 0 0 0 0 0 0 0 127 0"
                result="hardAlpha"
            />
<feOffset dx="1" dy="1" />
<feGaussianBlur stdDeviation="1.5" />
<feComposite in2="hardAlpha" operator="arithmetic" k2="-1" k3="1" />
<feColorMatrix type="matrix" values="0 0 0 0 0 0 0 0 0 0 0 0 0 0 0 0 0 0 0.4 0" />
<feBlend mode="normal" in2="shape" result="effect1_innerShadow" />
</filter>
<linearGradient
            id="paint0_linear"
            x1="146.189"
            y1="-176.799"
            x2="-170.281"
            y2="1.85715"
            gradientUnits="userSpaceOnUse"
        >
<stop stop-color="#E95420" />
<stop offset="1" stop-color="#8B3583" />
</linearGradient>
</defs>
</svg>
