<svg
    width="218"
    height="474"
    viewBox="0 0 218 474"
    fill="none"
    xmlns="http://www.w3.org/2000/svg"
>
<g filter="url(#filter0_ii)">
<path
            fill-rule="evenodd"
            clip-rule="evenodd"
            d="M217.55 43.9938C217.55 42.3053 217.55 40.6169 217.55 38.975C217.55 37.568 217.505 36.1609 217.505 34.7068C217.416 31.6118 217.238 28.5159 216.749 25.4674C216.215 22.3719 215.369 19.5108 213.99 16.6967C212.655 13.9297 210.92 11.397 208.828 9.19236C206.737 6.98815 204.334 5.15899 201.709 3.75195C199.039 2.29832 196.325 1.40704 193.388 0.844224C190.496 0.280947 187.559 0.0936489 184.622 0.0465938C183.287 0 181.952 0 180.573 0C178.971 0 177.369 0 175.812 0H44.2877C42.6856 0 41.0839 0 39.5264 0C38.1917 0 36.8568 0.0465938 35.4773 0.0465938C32.5405 0.140704 29.6037 0.328463 26.7114 0.844224C23.7746 1.40704 21.0603 2.29832 18.3907 3.75195C15.7654 5.15899 13.3626 6.98815 11.2711 9.19236C9.17978 11.397 7.4444 13.9297 6.10949 16.6967C4.73001 19.5108 3.8845 22.3719 3.35053 25.4674C2.81657 28.5159 2.63873 31.6118 2.59416 34.7068C2.5498 36.1139 2.5498 37.5214 2.5498 38.975C2.5498 40.6635 2.5498 42.3519 2.5498 43.9938V430.006C2.5498 431.695 2.5498 433.383 2.5498 435.025C2.5498 436.432 2.59416 437.839 2.59416 439.293C2.68308 442.388 2.86114 445.484 3.35053 448.533C3.8845 451.628 4.73001 454.489 6.10949 457.303C7.4444 460.07 9.17978 462.603 11.2711 464.807C13.3626 467.012 15.7654 468.841 18.3907 470.248C21.0603 471.702 23.7746 472.593 26.7114 473.156C29.6037 473.719 32.5405 473.906 35.4773 473.953C36.8122 474 38.1469 474 39.5264 474C41.1282 474 179.016 474 180.573 474C181.908 474 183.243 473.953 184.622 473.953C187.559 473.859 190.496 473.672 193.388 473.156C196.325 472.593 199.039 471.702 201.709 470.248C204.334 468.841 206.737 467.012 208.828 464.807C210.92 462.603 212.655 460.07 213.99 457.303C215.369 454.489 216.215 451.628 216.749 448.533C217.283 445.484 217.461 442.388 217.505 439.293C217.55 437.886 217.55 436.479 217.55 435.025C217.55 433.336 217.55 431.648 217.55 430.006V43.9938Z"
            fill="white"
        />
</g>
<g filter="url(#filter1_i)">
<path
            fill-rule="evenodd"
            clip-rule="evenodd"
            d="M210.55 50.9938C210.55 49.3053 210.55 47.6169 210.55 45.975C210.55 44.568 210.505 43.1609 210.505 41.7068C210.416 38.6118 210.238 35.5159 209.749 32.4674C209.215 29.3719 208.369 26.5108 206.99 23.6967C205.655 20.9297 203.92 18.397 201.828 16.1924C199.737 13.9881 197.334 12.159 194.709 10.752C192.039 9.29832 189.325 8.40704 186.388 7.84422C183.496 7.28095 180.559 7.09365 177.622 7.04659C176.287 7 174.952 7 173.573 7C171.971 7 170.369 7 168.812 7L51.2877 7C49.6856 7 48.0839 7 46.5264 7C45.1917 7 43.8568 7.04659 42.4773 7.04659C39.5405 7.1407 36.6037 7.32846 33.7114 7.84422C30.7746 8.40704 28.0603 9.29832 25.3907 10.752C22.7654 12.159 20.3626 13.9881 18.2711 16.1924C16.1798 18.397 14.4444 20.9297 13.1095 23.6967C11.73 26.5108 10.8845 29.3719 10.3505 32.4674C9.81657 35.5159 9.63873 38.6118 9.59416 41.7068C9.5498 43.1139 9.5498 44.5214 9.5498 45.975C9.5498 47.6635 9.5498 49.3519 9.5498 50.9938V425.006C9.5498 426.695 9.5498 428.383 9.5498 430.025C9.5498 431.432 9.59416 432.839 9.59416 434.293C9.68308 437.388 9.86114 440.484 10.3505 443.533C10.8845 446.628 11.73 449.489 13.1095 452.303C14.4444 455.07 16.1798 457.603 18.2711 459.807C20.3626 462.012 22.7654 463.841 25.3907 465.248C28.0603 466.702 30.7746 467.593 33.7114 468.156C36.6037 468.719 39.5405 468.906 42.4773 468.953C43.8122 469 45.1469 469 46.5264 469C48.1282 469 172.016 469 173.573 469C174.908 469 176.243 468.953 177.622 468.953C180.559 468.859 183.496 468.672 186.388 468.156C189.325 467.593 192.039 466.702 194.709 465.248C197.334 463.841 199.737 462.012 201.828 459.807C203.92 457.603 205.655 455.07 206.99 452.303C208.369 449.489 209.215 446.628 209.749 443.533C210.283 440.484 210.461 437.388 210.505 434.293C210.55 432.886 210.55 431.479 210.55 430.025C210.55 428.336 210.55 426.648 210.55 425.006V50.9938Z"
            fill="black"
            fill-opacity="0.01"
        />
</g>
<path
        fill-rule="evenodd"
        clip-rule="evenodd"
        d="M102.795 7.02515H116.449V13.8801C116.449 17.6506 113.393 20.7072 109.622 20.7072C105.852 20.7072 102.795 17.6506 102.795 13.8801V7.02515ZM115.949 7.52498H103.295L103.295 13.8801C103.295 17.2968 106.003 20.081 109.39 20.2031L109.622 20.2072C113.117 20.2072 115.949 17.3745 115.949 13.8801L115.949 7.52498Z"
        fill="#C0C0C0"
    />
<path
        fill-rule="evenodd"
        clip-rule="evenodd"
        d="M108.55 9.5C108.55 9.77614 108.326 10 108.05 10C107.774 10 107.55 9.77614 107.55 9.5C107.55 9.22386 107.774 9 108.05 9C108.326 9 108.55 9.22386 108.55 9.5ZM110.55 9.5C110.55 9.77614 110.326 10 110.05 10C109.774 10 109.55 9.77614 109.55 9.5C109.55 9.22386 109.774 9 110.05 9C110.326 9 110.55 9.22386 110.55 9.5ZM112.05 10C112.326 10 112.55 9.77614 112.55 9.5C112.55 9.22386 112.326 9 112.05 9C111.774 9 111.55 9.22386 111.55 9.5C111.55 9.77614 111.774 10 112.05 10ZM108.55 17.5C108.55 17.7761 108.326 18 108.05 18C107.774 18 107.55 17.7761 107.55 17.5C107.55 17.2239 107.774 17 108.05 17C108.326 17 108.55 17.2239 108.55 17.5ZM110.05 18C110.326 18 110.55 17.7761 110.55 17.5C110.55 17.2239 110.326 17 110.05 17C109.774 17 109.55 17.2239 109.55 17.5C109.55 17.7761 109.774 18 110.05 18ZM112.55 17.5C112.55 17.7761 112.326 18 112.05 18C111.774 18 111.55 17.7761 111.55 17.5C111.55 17.2239 111.774 17 112.05 17C112.326 17 112.55 17.2239 112.55 17.5ZM114.05 12C114.326 12 114.55 11.7761 114.55 11.5C114.55 11.2239 114.326 11 114.05 11C113.774 11 113.55 11.2239 113.55 11.5C113.55 11.7761 113.774 12 114.05 12ZM112.55 11.5C112.55 11.7761 112.326 12 112.05 12C111.774 12 111.55 11.7761 111.55 11.5C111.55 11.2239 111.774 11 112.05 11C112.326 11 112.55 11.2239 112.55 11.5ZM110.05 12C110.326 12 110.55 11.7761 110.55 11.5C110.55 11.2239 110.326 11 110.05 11C109.774 11 109.55 11.2239 109.55 11.5C109.55 11.7761 109.774 12 110.05 12ZM108.55 11.5C108.55 11.7761 108.326 12 108.05 12C107.774 12 107.55 11.7761 107.55 11.5C107.55 11.2239 107.774 11 108.05 11C108.326 11 108.55 11.2239 108.55 11.5ZM106.05 12C106.326 12 106.55 11.7761 106.55 11.5C106.55 11.2239 106.326 11 106.05 11C105.774 11 105.55 11.2239 105.55 11.5C105.55 11.7761 105.774 12 106.05 12ZM106.55 13.5C106.55 13.7761 106.326 14 106.05 14C105.774 14 105.55 13.7761 105.55 13.5C105.55 13.2239 105.774 13 106.05 13C106.326 13 106.55 13.2239 106.55 13.5ZM108.05 14C108.326 14 108.55 13.7761 108.55 13.5C108.55 13.2239 108.326 13 108.05 13C107.774 13 107.55 13.2239 107.55 13.5C107.55 13.7761 107.774 14 108.05 14ZM110.55 13.5C110.55 13.7761 110.326 14 110.05 14C109.774 14 109.55 13.7761 109.55 13.5C109.55 13.2239 109.774 13 110.05 13C110.326 13 110.55 13.2239 110.55 13.5ZM112.05 14C112.326 14 112.55 13.7761 112.55 13.5C112.55 13.2239 112.326 13 112.05 13C111.774 13 111.55 13.2239 111.55 13.5C111.55 13.7761 111.774 14 112.05 14ZM114.55 13.5C114.55 13.7761 114.326 14 114.05 14C113.774 14 113.55 13.7761 113.55 13.5C113.55 13.2239 113.774 13 114.05 13C114.326 13 114.55 13.2239 114.55 13.5ZM114.05 16C114.326 16 114.55 15.7761 114.55 15.5C114.55 15.2239 114.326 15 114.05 15C113.774 15 113.55 15.2239 113.55 15.5C113.55 15.7761 113.774 16 114.05 16ZM112.55 15.5C112.55 15.7761 112.326 16 112.05 16C111.774 16 111.55 15.7761 111.55 15.5C111.55 15.2239 111.774 15 112.05 15C112.326 15 112.55 15.2239 112.55 15.5ZM110.05 16C110.326 16 110.55 15.7761 110.55 15.5C110.55 15.2239 110.326 15 110.05 15C109.774 15 109.55 15.2239 109.55 15.5C109.55 15.7761 109.774 16 110.05 16ZM108.55 15.5C108.55 15.7761 108.326 16 108.05 16C107.774 16 107.55 15.7761 107.55 15.5C107.55 15.2239 107.774 15 108.05 15C108.326 15 108.55 15.2239 108.55 15.5ZM106.05 16C106.326 16 106.55 15.7761 106.55 15.5C106.55 15.2239 106.326 15 106.05 15C105.774 15 105.55 15.2239 105.55 15.5C105.55 15.7761 105.774 16 106.05 16Z"
        fill="#C0C0C0"
    />
<path
        fill-rule="evenodd"
        clip-rule="evenodd"
        d="M202.8 41C203.214 41 203.55 41.3358 203.55 41.75V427.25C203.55 427.664 203.214 428 202.8 428H15.2998C14.8856 428 14.5498 427.664 14.5498 427.25V41.75C14.5498 41.3358 14.8856 41 15.2998 41H202.8Z"
        fill="black"
    />
<path
        fill-rule="evenodd"
        clip-rule="evenodd"
        d="M202.8 41C203.214 41 203.55 41.3358 203.55 41.75V427.25C203.55 427.664 203.214 428 202.8 428H15.2998C14.8856 428 14.5498 427.664 14.5498 427.25V41.75C14.5498 41.3358 14.8856 41 15.2998 41H202.8Z"
        fill="url(#paint0_linear)"
    />
<path
        fill-rule="evenodd"
        clip-rule="evenodd"
        d="M3.10518 96.4699L0.442739 96.2007C0.442739 96.2007 -0.000976562 96.1234 -0.000976562 111C-0.000976562 125.877 0.442739 125.799 0.442739 125.799L3.10518 125.586V96.4699ZM3.10518 134.47L0.442739 134.201C0.442739 134.201 -0.000976562 134.123 -0.000976562 149C-0.000976562 163.877 0.442739 163.799 0.442739 163.799L3.10518 163.586V134.47ZM0.442739 190.201L3.10518 190.47V219.586L0.442739 219.799C0.442739 219.799 -0.000976562 219.877 -0.000976562 205C-0.000976562 190.123 0.442739 190.201 0.442739 190.201Z"
        fill="#6E6E6E"
    />
<path
        fill-rule="evenodd"
        clip-rule="evenodd"
        d="M130.05 13C134.192 13 137.55 16.3579 137.55 20.5C137.55 24.6421 134.192 28 130.05 28C125.908 28 122.55 24.6421 122.55 20.5C122.55 16.3579 125.908 13 130.05 13ZM130.05 13.5C126.184 13.5 123.05 16.634 123.05 20.5C123.05 24.366 126.184 27.5 130.05 27.5C133.916 27.5 137.05 24.366 137.05 20.5C137.05 16.634 133.916 13.5 130.05 13.5ZM130.05 24C131.983 24 133.55 22.433 133.55 20.5C133.55 18.567 131.983 17 130.05 17C128.117 17 126.55 18.567 126.55 20.5C126.55 22.433 128.117 24 130.05 24Z"
        fill="#D1D1D1"
    />
<defs>
<filter
            id="filter0_ii"
            x="0.549805"
            y="0"
            width="219"
            height="474"
            filterUnits="userSpaceOnUse"
            color-interpolation-filters="sRGB"
        >
<feFlood flood-opacity="0" result="BackgroundImageFix" />
<feBlend mode="normal" in="SourceGraphic" in2="BackgroundImageFix" result="shape" />
<feColorMatrix
                in="SourceAlpha"
                type="matrix"
                values="0 0 0 0 0 0 0 0 0 0 0 0 0 0 0 0 0 0 127 0"
                result="hardAlpha"
            />
<feOffset dx="2" />
<feGaussianBlur stdDeviation="3" />
<feComposite in2="hardAlpha" operator="arithmetic" k2="-1" k3="1" />
<feColorMatrix type="matrix" values="0 0 0 0 1 0 0 0 0 1 0 0 0 0 1 0 0 0 0.1 0" />
<feBlend mode="normal" in2="shape" result="effect1_innerShadow" />
<feColorMatrix
                in="SourceAlpha"
                type="matrix"
                values="0 0 0 0 0 0 0 0 0 0 0 0 0 0 0 0 0 0 127 0"
                result="hardAlpha"
            />
<feOffset dx="-2" />
<feGaussianBlur stdDeviation="3" />
<feComposite in2="hardAlpha" operator="arithmetic" k2="-1" k3="1" />
<feColorMatrix type="matrix" values="0 0 0 0 0 0 0 0 0 0 0 0 0 0 0 0 0 0 0.4 0" />
<feBlend mode="normal" in2="effect1_innerShadow" result="effect2_innerShadow" />
</filter>
<filter
            id="filter1_i"
            x="9.5498"
            y="7"
            width="201"
            height="462"
            filterUnits="userSpaceOnUse"
            color-interpolation-filters="sRGB"
        >
<feFlood flood-opacity="0" result="BackgroundImageFix" />
<feBlend mode="normal" in="SourceGraphic" in2="BackgroundImageFix" result="shape" />
<feColorMatrix
                in="SourceAlpha"
                type="matrix"
                values="0 0 0 0 0 0 0 0 0 0 0 0 0 0 0 0 0 0 127 0"
                result="hardAlpha"
            />
<feOffset />
<feGaussianBlur stdDeviation="1" />
<feComposite in2="hardAlpha" operator="arithmetic" k2="-1" k3="1" />
<feColorMatrix
                type="matrix"
                values="0 0 0 0 0.633237 0 0 0 0 0.633237 0 0 0 0 0.633237 0 0 0 1 0"
            />
<feBlend mode="normal" in2="shape" result="effect1_innerShadow" />
</filter>
<linearGradient
            id="paint0_linear"
            x1="138.113"
            y1="-185.325"
            x2="-166.987"
            y2="-36.8142"
            gradientUnits="userSpaceOnUse"
        >
<stop stop-color="#E95420" />
<stop offset="1" stop-color="#8B3583" />
</linearGradient>
</defs>
</svg>
