<svg
    width="226"
    height="479"
    viewBox="0 0 226 479"
    fill="none"
    xmlns="http://www.w3.org/2000/svg"
>
<path
        fill-rule="evenodd"
        clip-rule="evenodd"
        d="M224.975 108.929L222.787 108.637C222.787 108.637 222.422 108.553 222.422 124.725C222.422 140.897 222.787 140.813 222.787 140.813L224.975 140.581V108.929Z"
        fill="#9C9C9C"
    />
<path
        fill-rule="evenodd"
        clip-rule="evenodd"
        d="M224.975 174.882L222.787 174.294C222.787 174.294 222.422 174.126 222.422 206.606C222.422 239.086 222.787 238.917 222.787 238.917L224.975 238.453V174.882Z"
        fill="#9C9C9C"
    />
<g filter="url(#filter0_ii)">
<path
            fill-rule="evenodd"
            clip-rule="evenodd"
            d="M222.988 45.6578C222.989 43.9055 222.989 42.1532 222.989 40.4492C222.989 38.989 222.942 37.5287 222.942 36.0196C222.85 32.8075 222.666 29.5945 222.158 26.4307C221.604 23.2181 220.727 20.2488 219.297 17.3283C217.912 14.4566 216.112 11.8281 213.943 9.54005C211.774 7.25247 209.282 5.35413 206.559 3.89387C203.79 2.38525 200.975 1.46026 197.929 0.876157C194.929 0.291573 191.883 0.0971911 188.838 0.0483562C187.453 0 186.069 0 184.638 0C182.977 0 181.315 0 179.7 0H43.2887C41.6271 0 39.9659 0 38.3505 0C36.9662 0 35.5817 0.0483562 34.1509 0.0483562C31.105 0.146026 28.0591 0.340887 25.0594 0.876157C22.0135 1.46026 19.1982 2.38525 16.4294 3.89387C13.7066 5.35413 11.2145 7.25247 9.04531 9.54005C6.87632 11.8281 5.07646 14.4566 3.69195 17.3283C2.26122 20.2488 1.38429 23.2181 0.830483 26.4307C0.276679 29.5945 0.0922262 32.8075 0.0460015 36.0196C0 37.4799 0 38.9406 0 40.4492C0 42.2015 0 43.9539 0 45.6578V432.779C0 434.532 0 436.284 0 437.987C0 439.448 0.0460015 440.908 0.0460015 442.417C0.138228 445.63 0.322903 448.842 0.830483 452.006C1.38429 455.218 2.26122 458.188 3.69195 461.108C5.07646 463.98 6.87632 466.609 9.04531 468.896C11.2145 471.185 13.7066 473.083 16.4294 474.543C19.1982 476.052 22.0135 476.977 25.0594 477.561C28.0591 478.145 31.105 478.34 34.1509 478.388C35.5355 478.437 36.9197 478.437 38.3505 478.437C40.0119 478.437 183.023 478.437 184.638 478.437C186.022 478.437 187.407 478.388 188.838 478.388C191.883 478.291 194.929 478.096 197.929 477.561C200.975 476.977 203.79 476.052 206.559 474.543C209.282 473.083 211.774 471.185 213.943 468.896C216.112 466.609 217.912 463.98 219.297 461.108C220.727 458.188 221.604 455.218 222.158 452.006C222.712 448.842 222.896 445.63 222.942 442.417C222.988 440.957 222.988 439.496 222.988 437.987C222.988 436.235 222.988 434.483 222.988 432.779V45.6578Z"
            fill="white"
        />
</g>
<g filter="url(#filter1_i)">
<path
            fill-rule="evenodd"
            clip-rule="evenodd"
            d="M139.051 11.1965C141.646 11.1965 143.749 13.2999 143.749 15.8945V15.9143C143.749 18.509 141.646 20.6123 139.051 20.6123C136.457 20.6123 134.353 18.509 134.353 15.9143V15.8945C134.353 13.2999 136.457 11.1965 139.051 11.1965Z"
            fill="black"
            fill-opacity="0.2"
        />
</g>
<g filter="url(#filter2_i)">
<path
            fill-rule="evenodd"
            clip-rule="evenodd"
            d="M93.6519 12.7171H120.259C121.128 12.7171 121.981 13.4736 121.981 14.4068C121.981 15.3399 121.128 16.0964 120.259 16.0964H93.6519C92.7822 16.0964 91.9301 15.3399 91.9301 14.4068C91.9301 13.4736 92.7822 12.7171 93.6519 12.7171Z"
            fill="black"
            fill-opacity="0.2"
        />
</g>
<path
        fill-rule="evenodd"
        clip-rule="evenodd"
        d="M213.675 28.425C214.283 28.425 214.775 28.9175 214.775 29.525V446.325C214.775 446.933 214.283 447.425 213.675 447.425H10.725C10.1175 447.425 9.625 446.933 9.625 446.325V29.525C9.625 28.9175 10.1175 28.425 10.725 28.425H213.675Z"
        fill="black"
    />
<path
        fill-rule="evenodd"
        clip-rule="evenodd"
        d="M213.675 28.425C214.283 28.425 214.775 28.9175 214.775 29.525V446.325C214.775 446.933 214.283 447.425 213.675 447.425H10.725C10.1175 447.425 9.625 446.933 9.625 446.325V29.525C9.625 28.9175 10.1175 28.425 10.725 28.425H213.675Z"
        fill="url(#paint0_linear)"
    />
<defs>
<filter
            id="filter0_ii"
            x="-3"
            y="0"
            width="228.989"
            height="478.437"
            filterUnits="userSpaceOnUse"
            color-interpolation-filters="sRGB"
        >
<feFlood flood-opacity="0" result="BackgroundImageFix" />
<feBlend mode="normal" in="SourceGraphic" in2="BackgroundImageFix" result="shape" />
<feColorMatrix
                in="SourceAlpha"
                type="matrix"
                values="0 0 0 0 0 0 0 0 0 0 0 0 0 0 0 0 0 0 127 0"
                result="hardAlpha"
            />
<feOffset dx="3" />
<feGaussianBlur stdDeviation="4" />
<feComposite in2="hardAlpha" operator="arithmetic" k2="-1" k3="1" />
<feColorMatrix type="matrix" values="0 0 0 0 1 0 0 0 0 1 0 0 0 0 1 0 0 0 0.1 0" />
<feBlend mode="normal" in2="shape" result="effect1_innerShadow" />
<feColorMatrix
                in="SourceAlpha"
                type="matrix"
                values="0 0 0 0 0 0 0 0 0 0 0 0 0 0 0 0 0 0 127 0"
                result="hardAlpha"
            />
<feOffset dx="-3" />
<feGaussianBlur stdDeviation="4" />
<feComposite in2="hardAlpha" operator="arithmetic" k2="-1" k3="1" />
<feColorMatrix type="matrix" values="0 0 0 0 0 0 0 0 0 0 0 0 0 0 0 0 0 0 0.4 0" />
<feBlend mode="normal" in2="effect1_innerShadow" result="effect2_innerShadow" />
</filter>
<filter
            id="filter1_i"
            x="134.354"
            y="11.1965"
            width="10.396"
            height="10.4158"
            filterUnits="userSpaceOnUse"
            color-interpolation-filters="sRGB"
        >
<feFlood flood-opacity="0" result="BackgroundImageFix" />
<feBlend mode="normal" in="SourceGraphic" in2="BackgroundImageFix" result="shape" />
<feColorMatrix
                in="SourceAlpha"
                type="matrix"
                values="0 0 0 0 0 0 0 0 0 0 0 0 0 0 0 0 0 0 127 0"
                result="hardAlpha"
            />
<feOffset dx="1" dy="1" />
<feGaussianBlur stdDeviation="1" />
<feComposite in2="hardAlpha" operator="arithmetic" k2="-1" k3="1" />
<feColorMatrix type="matrix" values="0 0 0 0 0 0 0 0 0 0 0 0 0 0 0 0 0 0 0.4 0" />
<feBlend mode="normal" in2="shape" result="effect1_innerShadow" />
</filter>
<filter
            id="filter2_i"
            x="91.9297"
            y="12.717"
            width="31.0505"
            height="4.37932"
            filterUnits="userSpaceOnUse"
            color-interpolation-filters="sRGB"
        >
<feFlood flood-opacity="0" result="BackgroundImageFix" />
<feBlend mode="normal" in="SourceGraphic" in2="BackgroundImageFix" result="shape" />
<feColorMatrix
                in="SourceAlpha"
                type="matrix"
                values="0 0 0 0 0 0 0 0 0 0 0 0 0 0 0 0 0 0 127 0"
                result="hardAlpha"
            />
<feOffset dx="1" dy="1" />
<feGaussianBlur stdDeviation="1.5" />
<feComposite in2="hardAlpha" operator="arithmetic" k2="-1" k3="1" />
<feColorMatrix type="matrix" values="0 0 0 0 0 0 0 0 0 0 0 0 0 0 0 0 0 0 0.4 0" />
<feBlend mode="normal" in2="shape" result="effect1_innerShadow" />
</filter>
<linearGradient
            id="paint0_linear"
            x1="143.747"
            y1="-216.614"
            x2="-187.101"
            y2="-55.1598"
            gradientUnits="userSpaceOnUse"
        >
<stop stop-color="#E95420" />
<stop offset="1" stop-color="#8B3583" />
</linearGradient>
</defs>
</svg>
