<svg
    width="223"
    height="447"
    viewBox="0 0 223 447"
    fill="none"
    xmlns="http://www.w3.org/2000/svg"
>
<g filter="url(#filter0_ii)">
<path
            fill-rule="evenodd"
            clip-rule="evenodd"
            d="M0 16.561C0 14.935 0.352049 13.3118 1.65162 12.3346C6.69116 8.54494 26.7607 0 105.285 0C175.048 0 204.615 6.74446 216.22 10.9069C220.714 12.5189 223 16.8655 223 21.6398V430.428C223 434.507 221.138 438.106 217.234 439.288C207.236 442.315 180.653 447 111.866 447C43.4672 447 16.4657 442.368 6.12056 439.339C2.00711 438.135 0 434.366 0 430.08V16.561Z"
            fill="white"
        />
</g>
<path
        fill-rule="evenodd"
        clip-rule="evenodd"
        d="M213.363 34C213.715 34 214 34.2854 214 34.6375V400.362C214 400.715 213.715 401 213.363 401H7.6375C7.28542 401 7 400.715 7 400.362L7 34.6375C7 34.2854 7.28542 34 7.6375 34H213.363Z"
        fill="black"
    />
<path
        fill-rule="evenodd"
        clip-rule="evenodd"
        d="M213.363 34C213.715 34 214 34.2854 214 34.6375V400.362C214 400.715 213.715 401 213.363 401H7.6375C7.28542 401 7 400.715 7 400.362L7 34.6375C7 34.2854 7.28542 34 7.6375 34H213.363Z"
        fill="url(#paint0_linear)"
    />
<rect opacity="0.2" x="108" y="16" width="8" height="8" rx="4" fill="#ECECEC" />
<defs>
<filter
            id="filter0_ii"
            x="-3"
            y="0"
            width="229"
            height="447"
            filterUnits="userSpaceOnUse"
            color-interpolation-filters="sRGB"
        >
<feFlood flood-opacity="0" result="BackgroundImageFix" />
<feBlend mode="normal" in="SourceGraphic" in2="BackgroundImageFix" result="shape" />
<feColorMatrix
                in="SourceAlpha"
                type="matrix"
                values="0 0 0 0 0 0 0 0 0 0 0 0 0 0 0 0 0 0 127 0"
                result="hardAlpha"
            />
<feOffset dx="3" />
<feGaussianBlur stdDeviation="3.5" />
<feComposite in2="hardAlpha" operator="arithmetic" k2="-1" k3="1" />
<feColorMatrix type="matrix" values="0 0 0 0 1 0 0 0 0 1 0 0 0 0 1 0 0 0 0.1 0" />
<feBlend mode="normal" in2="shape" result="effect1_innerShadow" />
<feColorMatrix
                in="SourceAlpha"
                type="matrix"
                values="0 0 0 0 0 0 0 0 0 0 0 0 0 0 0 0 0 0 127 0"
                result="hardAlpha"
            />
<feOffset dx="-3" />
<feGaussianBlur stdDeviation="3.5" />
<feComposite in2="hardAlpha" operator="arithmetic" k2="-1" k3="1" />
<feColorMatrix type="matrix" values="0 0 0 0 0 0 0 0 0 0 0 0 0 0 0 0 0 0 0.4 0" />
<feBlend mode="normal" in2="effect1_innerShadow" result="effect2_innerShadow" />
</filter>
<linearGradient
            id="paint0_linear"
            x1="142.332"
            y1="-180.629"
            x2="-171.742"
            y2="-4.06575"
            gradientUnits="userSpaceOnUse"
        >
<stop stop-color="#E95420" />
<stop offset="1" stop-color="#8B3583" />
</linearGradient>
</defs>
</svg>
