<svg
    id="Layer_1"
    data-name="Layer 1"
    xmlns="http://www.w3.org/2000/svg"
    viewBox="0 0 21.79 21.39"
><defs><style>.cls-1{fill:#af415d;}</style></defs><title>icon-1</title><path
        id="Fill_5"
        data-name="Fill 5"
        class="cls-1"
        d="M9.08.9h0a2,2,0,1,1-2.25.93A2,2,0,0,1,9.08.9Zm4.67,3.84a9.37,9.37,0,0,1,3.64,1.89l-2,2A6.31,6.31,0,0,0,13,7.43,5.9,5.9,0,0,0,5.84,10.9L3,10.1A8.28,8.28,0,0,1,7,5.46a3.07,3.07,0,0,0,2.45.46,2.75,2.75,0,0,0,1.87-1.51A9.58,9.58,0,0,1,13.74,4.74Zm4.74,3.34h0a8.41,8.41,0,0,1,2.17,5.65,2.68,2.68,0,0,0-1.09,4.07,8.41,8.41,0,0,1-4.7,3.8l-.78-2.67A5.59,5.59,0,0,0,16.47,10l2-1.92Zm3.72,5.66a2,2,0,1,1-2.45,1.41A2,2,0,0,1,22.2,13.74ZM5.58,11.87h0a5.9,5.9,0,0,0,4.48,6.6,6.32,6.32,0,0,0,2.61.15l.76,2.73a9.38,9.38,0,0,1-4.09-.19,9.58,9.58,0,0,1-2.25-.92A2.75,2.75,0,0,0,6.22,18a3.08,3.08,0,0,0-2.36-.83,8.28,8.28,0,0,1-1.16-6l2.87.73ZM4.41,18.29h0a2,2,0,1,1-1.93.52A2,2,0,0,1,4.41,18.29Z"
        transform="translate(-1.9 -0.83)"
    /></svg>
