<svg
    id="Layer_1"
    data-name="Layer 1"
    xmlns="http://www.w3.org/2000/svg"
    xmlns:xlink="http://www.w3.org/1999/xlink"
    viewBox="0 0 96 96"
><defs><style
        >.cls-1{fill:#fff;}.cls-2{fill:#f5f5f5;}.cls-3{mask:url(#mask);}.cls-4{fill:#9c9c9c;}.cls-5{fill-opacity:0.2;}.cls-6{fill:url(#linear-gradient);}</style><mask
            id="mask"
            x="0"
            y="0"
            width="96"
            height="96"
            maskUnits="userSpaceOnUse"
        ><g id="mask0"><circle
                    class="cls-1"
                    cx="48"
                    cy="48"
                    r="48"
                /></g></mask><linearGradient
            id="linear-gradient"
            x1="78.82"
            y1="65.64"
            x2="28.8"
            y2="41.55"
            gradientTransform="matrix(1, 0, 0, -1, 0, 98)"
            gradientUnits="userSpaceOnUse"
        ><stop offset="0" stop-color="#e95420" /><stop
                offset="1"
                stop-color="#8b3583"
            /></linearGradient></defs><title>phone</title><circle
        class="cls-2"
        cx="48"
        cy="48"
        r="48"
    /><g class="cls-3"><path
            class="cls-4"
            d="M64.85,27.6l-.33,0A15.74,15.74,0,0,0,64.46,30a15.74,15.74,0,0,0,.05,2.45l.33,0Z"
        /><path
            class="cls-4"
            d="M64.85,37.65l-.33-.09s-.05,0-.05,4.92.05,4.92.05,4.92l.33-.07Z"
        /><path
            class="cls-1"
            d="M64.55,18c0-.27,0-.53,0-.79s0-.45,0-.68A11.4,11.4,0,0,0,64.42,15,5.08,5.08,0,0,0,64,13.64a4.67,4.67,0,0,0-.81-1.19,4.4,4.4,0,0,0-1.11-.86,4.34,4.34,0,0,0-1.3-.46A7.69,7.69,0,0,0,59.41,11H36.14a9.4,9.4,0,0,0-1.37.13,4.34,4.34,0,0,0-1.3.46,4.4,4.4,0,0,0-1.11.86,4.68,4.68,0,0,0-.81,1.19A5.08,5.08,0,0,0,31.12,15,9.36,9.36,0,0,0,31,16.49c0,.22,0,.45,0,.68V77.75c0,.22,0,.45,0,.68a11.42,11.42,0,0,0,.12,1.46,5.08,5.08,0,0,0,.43,1.39,4.67,4.67,0,0,0,.81,1.19,4.4,4.4,0,0,0,1.11.86,4.34,4.34,0,0,0,1.3.46,7.7,7.7,0,0,0,1.37.13H59.41a9.41,9.41,0,0,0,1.37-.13,4.34,4.34,0,0,0,1.3-.46,4.4,4.4,0,0,0,1.11-.86A4.67,4.67,0,0,0,64,81.27a5.08,5.08,0,0,0,.43-1.39,9.35,9.35,0,0,0,.12-1.46c0-.22,0-.45,0-.68V18Z"
        /><path
            class="cls-5"
            d="M51.92,12.71a.71.71,0,0,1,.71.72h0a.71.71,0,1,1-1.41,0h0A.71.71,0,0,1,51.92,12.71Z"
        /><path
            class="cls-5"
            d="M45.09,12.94h4a.26.26,0,1,1,0,.52h-4a.26.26,0,1,1,0-.52Z"
        /><path
            d="M62.21,15.33a1.1,1.1,0,0,1,1.1,1.1V78.09a1.1,1.1,0,0,1-1.1,1.1H33.55a1.1,1.1,0,0,1-1.1-1.1V16.43a1.1,1.1,0,0,1,1.1-1.1Z"
        /><path
            class="cls-6"
            d="M62.21,15.33a1.1,1.1,0,0,1,1.1,1.1V78.09a1.1,1.1,0,0,1-1.1,1.1H33.55a1.1,1.1,0,0,1-1.1-1.1V16.43a1.1,1.1,0,0,1,1.1-1.1Z"
        /></g></svg>
