<?xml version="1.0" encoding="utf-8" ?>
<!-- Generator: Adobe Illustrator 21.0.0, SVG Export Plug-In . SVG Version: 6.00 Build 0)  -->
<svg
    version="1.1"
    id="Layer_1"
    xmlns="http://www.w3.org/2000/svg"
    xmlns:xlink="http://www.w3.org/1999/xlink"
    x="0px"
    y="0px"
    viewBox="0 0 10 10"
    style="enable-background:new 0 0 10 10;"
    xml:space="preserve"
>
<path
        d="M9.3,0H6.4C6.2,0,6,0.2,6,0.5s0.2,0.4,0.4,0.4h1.8L3.9,5.2c-0.2,0.2-0.2,0.5,0,0.6C4,5.9,4.1,6,4.2,6s0.2,0,0.3-0.1l4.3-4.3
	v1.8c0,0.2,0.2,0.4,0.5,0.4c0.2,0,0.4-0.2,0.4-0.4V0.5C9.7,0.2,9.5,0,9.3,0z"
    />
<path
        d="M7.4,3.8C7.2,3.8,7,4,7,4.2v4.4H0.9V2.5h4.7C5.8,2.5,6,2.3,6,2.1S5.8,1.6,5.6,1.6H0.4C0.2,1.6,0,1.8,0,2.1v7
	c0,0.2,0.2,0.4,0.4,0.4h7c0.2,0,0.5-0.2,0.5-0.4V4.2C7.9,4,7.7,3.8,7.4,3.8z"
    />
</svg>
