<svg
    width="30"
    height="30"
    viewBox="0 0 30 30"
    fill="none"
    xmlns="http://www.w3.org/2000/svg"
>
<path
        fill-rule="evenodd"
        clip-rule="evenodd"
        d="M14.9587 30.0206L14.9816 30.0207H14.9737L14.9587 30.0206ZM15.0677 30.0207H15.0598L15.0827 30.0206L15.0677 30.0207ZM14.9125 30.0204L14.9372 30.0205H14.923L14.9125 30.0204V30.0204ZM15.1184 30.0205H15.1042L15.1289 30.0204L15.1184 30.0205ZM14.87 30.02L14.8865 30.0201L14.8733 30.02H14.87ZM15.1681 30.02L15.1549 30.0201L15.1714 30.02H15.1681ZM15.2123 30.0196L15.2065 30.0197L15.2288 30.0194L15.2123 30.0196ZM14.8126 30.0194L14.8349 30.0197L14.8291 30.0196L14.8126 30.0194V30.0194ZM15.2627 30.0188L15.2492 30.019L15.2767 30.0186L15.2627 30.0188ZM14.7647 30.0186L14.7922 30.019L14.7787 30.0188L14.7647 30.0186V30.0186ZM15.3134 30.018L15.2952 30.0183L15.3206 30.0178L15.3134 30.018ZM14.7208 30.0178L14.7462 30.0183L14.728 30.018L14.7208 30.0178ZM14.6665 30.0167L14.689 30.0172L14.685 30.0171L14.6665 30.0167ZM15.3564 30.0171L15.3524 30.0172L15.3749 30.0167L15.3564 30.0171ZM14.6166 30.0154L14.6475 30.0162L14.635 30.0159L14.6166 30.0154ZM15.4064 30.0159L15.3939 30.0162L15.4248 30.0154L15.4064 30.0159ZM15.4576 30.0145L15.4375 30.0151L15.4691 30.0142L15.4576 30.0145V30.0145ZM14.5723 30.0142L14.6039 30.0151L14.5838 30.0145L14.5723 30.0142V30.0142ZM14.5357 30.0131L14.5582 30.0138L14.537 30.0131L14.5176 30.0125L14.5357 30.0131V30.0131ZM15.5044 30.0131L15.4832 30.0138L15.5057 30.0131L15.5238 30.0125L15.5044 30.0131ZM15.5496 30.0116L15.5384 30.012L15.5729 30.0108L15.5496 30.0116ZM14.4685 30.0108L14.503 30.012L14.4918 30.0116L14.4685 30.0108ZM14.4243 30.0091L14.4605 30.0104L14.4404 30.0097L14.4243 30.0091ZM15.601 30.0097L15.5809 30.0104L15.6171 30.0091L15.601 30.0097ZM14.3814 30.0073L14.4168 30.0088L14.3891 30.0077L14.3814 30.0073V30.0073ZM15.6523 30.0077L15.6246 30.0088L15.66 30.0073L15.6523 30.0077V30.0077ZM14.3205 30.0046L14.3585 30.0063L14.3492 30.006L14.3205 30.0046ZM15.6922 30.006L15.6829 30.0063L15.7209 30.0046L15.6922 30.006ZM14.2769 30.0026L14.3163 30.0044L14.2977 30.0036L14.2769 30.0026ZM15.7437 30.0036L15.7251 30.0044L15.7645 30.0026L15.7437 30.0036ZM14.2342 30.0004L14.2739 30.0024L14.246 30.0011L14.2342 30.0004ZM15.7954 30.0011L15.7675 30.0024L15.8072 30.0004L15.7954 30.0011ZM15.8405 29.9987L15.8043 30.0006L15.8364 29.9989L15.8742 29.9968L15.8405 29.9987ZM14.205 29.9989L14.2371 30.0006L14.2009 29.9987L14.1672 29.9968L14.205 29.9989ZM15.8861 29.9961L15.8701 29.997L15.9107 29.9947L15.8861 29.9961ZM14.1308 29.9947L14.1714 29.997L14.1554 29.9961L14.1308 29.9947ZM14.0885 29.9922L14.129 29.9946L14.1037 29.9932L14.0885 29.9922V29.9922ZM15.9377 29.9932L15.9124 29.9946L15.9529 29.9922L15.9377 29.9932ZM14.0555 29.9901L14.092 29.9924L14.058 29.9903L14.0238 29.9881L14.0555 29.9901ZM15.9834 29.9903L15.9494 29.9924L15.9859 29.9901L16.0176 29.9881L15.9834 29.9903V29.9903ZM16.0282 29.9874L16.016 29.9882L16.0547 29.9856L16.0282 29.9874V29.9874ZM13.9867 29.9856L14.0254 29.9882L14.0132 29.9874L13.9867 29.9856V29.9856ZM13.9446 29.9826L13.9826 29.9853L13.9618 29.9839L13.9446 29.9826ZM16.0796 29.9839L16.0588 29.9853L16.0968 29.9826L16.0796 29.9839V29.9839ZM13.9031 29.9797L13.938 29.9822L13.9109 29.9803L13.9031 29.9797ZM16.1305 29.9803L16.1034 29.9822L16.1383 29.9797L16.1305 29.9803ZM13.8474 29.9755L13.878 29.9778L13.8706 29.9773L13.8474 29.9755V29.9755ZM16.1708 29.9773L16.1634 29.9778L16.194 29.9755L16.1708 29.9773V29.9773ZM16.2212 29.9734L16.2066 29.9745L16.2377 29.972L16.2212 29.9734V29.9734ZM13.8037 29.972L13.8348 29.9745L13.8202 29.9734L13.8037 29.972V29.972ZM13.7622 29.9686L13.7886 29.9708L13.77 29.9693L13.7622 29.9686ZM16.2715 29.9693L16.2529 29.9708L16.2793 29.9686L16.2715 29.9693V29.9693ZM16.3634 29.9614L16.3562 29.962L16.3743 29.9604L16.3634 29.9614V29.9614ZM13.6671 29.9604L13.6852 29.962L13.678 29.9614L13.6671 29.9604V29.9604ZM13.6241 29.9564L13.6376 29.9577L13.6292 29.9569L13.6241 29.9564ZM16.4122 29.9569L16.4038 29.9577L16.4173 29.9564L16.4122 29.9569ZM12.6562 29.8177C5.48912 28.6911 0 22.4815 0 15C0 6.7213 6.72129 0 15 0C23.2787 0 30 6.7213 30 15C30 22.4815 24.5109 28.6911 17.3438 29.8177V19.336H20.8389L21.5039 15H17.3438V12.1863C17.3438 11.0001 17.9249 9.84377 19.7882 9.84377H21.6797V6.15236C21.6797 6.15236 19.9631 5.85939 18.322 5.85939C14.8956 5.85939 12.6562 7.93595 12.6562 11.6953V15H8.84766V19.336H12.6562V29.8177Z"
        fill="black"
    />
</svg>
