<svg
    width="30"
    height="30"
    viewBox="0 0 30 30"
    fill="none"
    xmlns="http://www.w3.org/2000/svg"
>
<path
        fill-rule="evenodd"
        clip-rule="evenodd"
        d="M15 0C23.2787 0 30 6.72129 30 15C30 23.2787 23.2787 30 15 30C6.72129 30 0 23.2787 0 15C0 6.72129 6.72129 0 15 0ZM10.3103 23.4299V11.7158H6.41596V23.4299H10.3103ZM24.3506 23.4299V16.7124C24.3506 13.1142 22.4295 11.4404 19.8676 11.4404C17.8019 11.4404 16.8766 12.5764 16.3585 13.3744V11.7158H12.4651C12.5167 12.8149 12.4651 23.4299 12.4651 23.4299H16.3584V16.8879C16.3584 16.5378 16.3836 16.1878 16.4868 15.9375C16.7678 15.2382 17.4089 14.5137 18.4846 14.5137C19.8928 14.5137 20.457 15.5883 20.457 17.1624V23.4299H24.3506V23.4299ZM8.38945 6.06738C7.05703 6.06738 6.1865 6.94336 6.1865 8.0915C6.1865 9.21545 7.03055 10.1156 8.33789 10.1156H8.36303C9.72094 10.1156 10.5662 9.21545 10.5662 8.0915C10.541 6.94336 9.721 6.06738 8.38945 6.06738Z"
        fill="black"
    />
</svg>
