<svg xmlns="http://www.w3.org/2000/svg" viewBox="0 0 34 55.04"><defs><style
        >.cls-1{fill:#fff;}</style></defs><title>Asset 1</title><g
        id="Layer_2"
        data-name="Layer 2"
    ><g id="Group_3" data-name="Group 3"><path
                id="Combined_Shape"
                data-name="Combined Shape"
                class="cls-1"
                d="M5.66,55v-3.2h9.72V45.26A17.82,17.82,0,0,1,0,33l3.09-1a14.63,14.63,0,0,0,27.82,0L34,33A17.82,17.82,0,0,1,18.62,45.26v6.58h9.72V55ZM6,27.7V11.5a11.5,11.5,0,0,1,23,0V27.7a11.5,11.5,0,0,1-23,0Zm3.29,0a8.22,8.22,0,0,0,16.43,0V26H9.29Zm0-4.86H25.72V19.59H20.79V16.35h4.93V13.11H20.79V9.87h4.77a8.22,8.22,0,0,0-16.11,0h4.77v3.24H9.29v3.24h4.93v3.24H9.29Z"
            /></g></g></svg>
