<svg
    id="Layer_1"
    data-name="Layer 1"
    xmlns="http://www.w3.org/2000/svg"
    viewBox="0 0 30.05 30.05"
><title>telegram</title><path
        id="Combined_Shape"
        data-name="Combined Shape"
        d="M15,30a15,15,0,1,1,10.7-4.49l-.09.09A14.9,14.9,0,0,1,15,30ZM13.36,19.13h0l3.5,2.6a1.18,1.18,0,0,0,.56.18c.35,0,.59-.26.7-.78l2.3-10.91a1.09,1.09,0,0,0-.12-.95A.61.61,0,0,0,19.8,9a1,1,0,0,0-.35.07L5.95,14.36c-.46.18-.72.41-.71.64s.21.37.55.48l3.46,1.09,8-5.09a.72.72,0,0,1,.38-.13c.08,0,.14,0,.16.07s0,.12-.1.2l-6.49,5.9L11,21.11a.88.88,0,0,0,.7-.34Z"
        transform="translate(0 0.05)"
    /></svg>
