<svg
    id="Layer_1"
    data-name="Layer 1"
    xmlns="http://www.w3.org/2000/svg"
    viewBox="0 0 30 30"
><title>yumi</title><g id="Page-1"><g id="Ports"><path
                id="Combined-Shape"
                d="M15,0A15,15,0,0,1,25.61,25.61,15,15,0,0,1,4.39,4.39,14.9,14.9,0,0,1,15,0Zm0,8.36h-.45l-3.1,0A6.65,6.65,0,0,0,4.9,14.81v.63a6.65,6.65,0,0,0,6.52,6.66q1.82,0,3.64,0t3.71,0a6.65,6.65,0,0,0,6.51-6.43V15a6.65,6.65,0,0,0-6.55-6.66Zm0,3,3.55,0a4.15,4.15,0,1,1,0,8.3q-1.75,0-3.49,0t-3.44,0a4.15,4.15,0,1,1,0-8.31Zm1.63,5.36H13.33l.05.15A1.77,1.77,0,0,0,15,18.1a1.77,1.77,0,0,0,1.7-1.43Zm9.12-3.42h-.54l0,.05a7.43,7.43,0,0,1,.23,1.89,7.69,7.69,0,0,1-.14,1.62l-.06.27h.52a1.39,1.39,0,0,0,1.36-1.25V14.59A1.38,1.38,0,0,0,25.79,13.24ZM5,13.24H4.31a1.38,1.38,0,0,0-1.24,1.21v1.36a1.39,1.39,0,0,0,1.23,1.24h.65l-.06-.27a7.7,7.7,0,0,1-.14-1.62,7.13,7.13,0,0,1,.16-1.57L5,13.3Zm6.45.57A1.33,1.33,0,0,0,10,15a1.33,1.33,0,0,0,1.43,1.19A1.33,1.33,0,0,0,12.86,15,1.33,1.33,0,0,0,11.43,13.81Zm6.67,0A1.33,1.33,0,0,0,16.67,15a1.33,1.33,0,0,0,1.43,1.19A1.33,1.33,0,0,0,19.52,15,1.33,1.33,0,0,0,18.1,13.81Z"
            /></g></g></svg>
