<svg xmlns="http://www.w3.org/2000/svg" viewBox="0 0 53.5 50"><defs><style
        >.cls-1{fill:#fff;}</style></defs><title>Asset 1</title><g
        id="Layer_2"
        data-name="Layer 2"
    ><g id="Layer_1-2" data-name="Layer 1"><g id="Rectangle"><path
                    id="Combined_Shape"
                    data-name="Combined Shape"
                    class="cls-1"
                    d="M3.57,50A3.57,3.57,0,0,1,0,46.43V43.75a.89.89,0,0,1,.89-.89h.89V10.72A3.57,3.57,0,0,1,5.35,7.14h8.4a4.46,4.46,0,0,1,4.08-2.68,1.79,1.79,0,0,1,1.78-1.79h5.27l7.94-1.49L33.72,1l5.35-1,.17,0a.89.89,0,0,1,.89.89V7.14h8a3.57,3.57,0,0,1,3.57,3.57V42.86h.89a.89.89,0,0,1,.89.89v2.68A3.57,3.57,0,0,1,49.93,50ZM1.78,46.43a1.79,1.79,0,0,0,1.78,1.79H49.93a1.79,1.79,0,0,0,1.78-1.79V44.64H35.14l-1.52,1.53a.89.89,0,0,1-.63.26H20.51a.88.88,0,0,1-.63-.26l-1.52-1.53H1.78ZM3.57,10.72V42.86H18.73a.89.89,0,0,1,.63.26l1.52,1.53H32.62l1.52-1.53a.89.89,0,0,1,.63-.26H49.93V10.72a1.79,1.79,0,0,0-1.78-1.79h-8v8a.89.89,0,0,1-.89.89h-.17L29.42,16v1.83a.89.89,0,0,1-.89.89H25.86v4.91a3.12,3.12,0,0,1-6.24,0V15.18a1.79,1.79,0,0,1-1.78-1.79,4.47,4.47,0,0,1-4.46-4.46h-8A1.79,1.79,0,0,0,3.57,10.72ZM21.4,23.66a1.34,1.34,0,0,0,2.67,0V22.32H21.4Zm0-3.12h2.67V15.18H21.4ZM25.86,17h1.78V15.69l-1.78-.34Zm0-12.65v9.23l12.48,2.35V2Zm-6.24,9.08h4.46V4.46H19.62ZM15.16,8.93a2.68,2.68,0,0,0,2.67,2.68V6.25A2.68,2.68,0,0,0,15.16,8.93ZM26,43V41h2v2ZM7.39,39a.89.89,0,0,1-.89-.89h0V12.39a.89.89,0,0,1,.89-.89h5.35v1.77H8.28v24H45.72v-24H43V11.5h3.56a.89.89,0,0,1,.89.89h0V38.11a.89.89,0,0,1-.89.89H7.39Zm3.11-4V33H40v2ZM16,31.5v-2H43v2Zm-3.5,0v-2h2v2Z"
                /></g></g></g></svg>
