<svg
    xmlns="http://www.w3.org/2000/svg"
    xmlns:xlink="http://www.w3.org/1999/xlink"
    viewBox="0 0 14 14"
><defs><style>.cls-1{fill:#fff;}.cls-2{mask:url(#mask);}</style><mask
            id="mask"
            x="0"
            y="0"
            width="14"
            height="14"
            maskUnits="userSpaceOnUse"
        ><g id="mask0"><path
                    class="cls-1"
                    d="M10.5,1.75h1.31a1.31,1.31,0,0,1,1.31,1.31v9.63A1.31,1.31,0,0,1,11.81,14H2.19A1.31,1.31,0,0,1,.88,12.69V3.06A1.31,1.31,0,0,1,2.19,1.75H3.5V.33A.33.33,0,0,1,3.83,0H4.92a.33.33,0,0,1,.33.33V1.75h3.5V.33A.33.33,0,0,1,9.08,0h1.09a.33.33,0,0,1,.33.33ZM2.35,12.69h9.3a.16.16,0,0,0,.16-.16V4.38H2.19v8.15A.16.16,0,0,0,2.35,12.69Z"
                /></g></mask></defs><title>Asset 1</title><g
        id="Layer_2"
        data-name="Layer 2"
    ><g id="Layer_1-2" data-name="Layer 1"><path
                d="M10.5,1.75h1.31a1.31,1.31,0,0,1,1.31,1.31v9.63A1.31,1.31,0,0,1,11.81,14H2.19A1.31,1.31,0,0,1,.88,12.69V3.06A1.31,1.31,0,0,1,2.19,1.75H3.5V.33A.33.33,0,0,1,3.83,0H4.92a.33.33,0,0,1,.33.33V1.75h3.5V.33A.33.33,0,0,1,9.08,0h1.09a.33.33,0,0,1,.33.33ZM2.35,12.69h9.3a.16.16,0,0,0,.16-.16V4.38H2.19v8.15A.16.16,0,0,0,2.35,12.69Z"
            /><g class="cls-2"><rect width="14" height="14" /></g></g></g></svg>
