<svg
    id="Layer_1"
    data-name="Layer 1"
    xmlns="http://www.w3.org/2000/svg"
    viewBox="0 0 33 33"
><defs><style>.cls-1{fill:none;stroke:#000;stroke-width:3px;}</style></defs><title
    >close</title><circle class="cls-1" cx="16.5" cy="16.5" r="15" /><path
        d="M24,9.89l1-1.11h0ZM24.11,12,23,11Zm-2.21-2L20.79,9Zm-4.49,4.89-1,1.11,1.11,1,1-1.11Zm-4.89-4.49,1-1.11Zm-2.12.09,1.11,1h0Zm.09,2.12-1,1.11h0Zm4.89,4.49,1.11,1,1-1.11-1.11-1ZM10.89,22,9.79,21h0ZM11,24.11l-1,1.11h0ZM13.11,24,12,23h0Zm4.49-4.89,1-1.11L17.5,17l-1,1.11Zm4.89,4.49-1,1.11Zm2-2.21-1,1.11Zm-4.89-4.49-1.11-1L17.5,17l1.11,1ZM23,11h0l2.21,2A3,3,0,0,0,25,8.79Zm0,0h0l2-2.21A3,3,0,0,0,20.79,9Zm-4.49,4.89L23,11,20.79,9,16.3,13.87Zm-7-4.39L16.39,16l2-2.21L13.53,9.29Zm0,0h0l2-2.21a3,3,0,0,0-4.24.18Zm0,0h0l-2.21-2a3,3,0,0,0,.18,4.24ZM16.39,16,11.5,11.5l-2,2.21,4.89,4.49ZM12,23l4.49-4.89-2.21-2L9.79,21Zm0,0L9.79,21A3,3,0,0,0,10,25.21Zm0,0h0l-2,2.21A3,3,0,0,0,14.21,25Zm4.49-4.89L12,23l2.21,2,4.49-4.89Zm7,4.39L18.61,18l-2,2.21,4.89,4.49Zm0,0-2,2.21a3,3,0,0,0,4.24-.18Zm0,0,2.21,2a3,3,0,0,0-.18-4.24ZM18.61,18,23.5,22.5l2-2.21L20.63,15.8ZM23,11l-4.49,4.89,2.21,2L25.21,13Z"
        transform="translate(-0.5 -0.5)"
    /></svg>
