<?xml version="1.0" encoding="UTF-8" ?>
<svg
    width="30px"
    height="30px"
    viewBox="0 0 30 30"
    version="1.1"
    xmlns="http://www.w3.org/2000/svg"
    xmlns:xlink="http://www.w3.org/1999/xlink"
>
    <title>Combined Shape</title>
    <g id="Page-1" stroke="none" stroke-width="1" fill="none" fill-rule="evenodd">
        <g id="Ports" transform="translate(-1012.000000, -2220.000000)" fill="#000000">
            <path
                d="M1027,2220 C1031.00658,2220 1034.77351,2221.56029 1037.60661,2224.39339 C1040.43971,2227.22649 1042,2230.99342 1042,2235 C1042,2239.00658 1040.43971,2242.77351 1037.60661,2245.60661 C1034.77351,2248.43971 1031.00658,2250 1027,2250 C1022.99342,2250 1019.22649,2248.43971 1016.39339,2245.60661 C1013.56029,2242.77351 1012,2239.00658 1012,2235 C1012,2230.99342 1013.56029,2227.22649 1016.39339,2224.39339 C1019.22649,2221.56029 1022.99342,2220 1027,2220 Z M1027.00075,2228.36066 L1026.55466,2228.36102 C1025.51464,2228.3627 1024.48047,2228.37025 1023.45215,2228.38369 C1019.89881,2228.43012 1017.0274,2231.272 1016.90424,2234.80847 L1016.90012,2235.04524 L1016.90012,2235.43732 C1016.90012,2239.07014 1019.80023,2242.03323 1023.41958,2242.09836 C1024.63448,2242.12022 1025.84937,2242.13115 1027.06427,2242.13115 C1028.29797,2242.13115 1029.53448,2242.11988 1030.77379,2242.09733 C1034.31395,2242.03294 1037.16556,2239.19609 1037.28787,2235.67223 L1037.29196,2235.43632 L1037.29196,2235.04745 C1037.29196,2231.40306 1034.37402,2228.43502 1030.74289,2228.38594 C1029.49551,2228.36909 1028.24813,2228.36066 1027.00075,2228.36066 Z M1027.04113,2231.31148 C1028.2238,2231.31148 1029.40648,2231.31969 1030.58915,2231.33613 C1032.89136,2231.36813 1034.74057,2233.21062 1034.74057,2235.47245 C1034.74057,2237.74375 1032.88938,2239.5969 1030.57772,2239.63972 C1029.41139,2239.66133 1028.24837,2239.67213 1027.08866,2239.67213 C1025.94186,2239.67213 1024.79506,2239.66157 1023.64827,2239.64044 C1021.33604,2239.59784 1019.48428,2237.7443 1019.48428,2235.47245 C1019.48428,2233.20937 1021.3348,2231.36602 1023.63828,2231.33454 C1024.76313,2231.31916 1025.89741,2231.31148 1027.04113,2231.31148 Z M1028.66667,2236.66667 L1025.33333,2236.672 L1025.38361,2236.82484 C1025.65752,2237.57425 1026.26396,2238.09524 1026.96808,2238.09524 C1027.74969,2238.09524 1028.44701,2237.55041 1028.66667,2236.66667 L1028.66667,2236.66667 Z M1037.78703,2233.24323 L1037.24544,2233.24323 L1037.26288,2233.29806 C1037.41697,2233.9449 1037.49714,2234.48661 1037.49356,2235.18518 C1037.49048,2235.78396 1037.46305,2236.28211 1037.35049,2236.80907 L1037.28684,2237.07556 L1037.80773,2237.0751 C1038.5101,2237.06318 1039.09624,2236.52011 1039.16309,2235.82246 L1039.16944,2235.68994 L1039.16981,2234.59255 C1039.1581,2233.83527 1038.53618,2233.24284 1037.78703,2233.24323 Z M1016.97941,2233.24323 L1016.43781,2233.24323 L1016.30703,2233.24923 C1015.6607,2233.30912 1015.13554,2233.81094 1015.06333,2234.46071 L1015.05503,2234.59255 L1015.05541,2235.68993 L1015.06176,2235.82246 C1015.12443,2236.4765 1015.64351,2236.99468 1016.28688,2237.06672 L1016.41711,2237.07509 L1016.938,2237.07555 L1016.87435,2236.80906 C1016.76179,2236.2821 1016.73436,2235.78395 1016.73129,2235.18517 C1016.7283,2234.60303 1016.78347,2234.12982 1016.89112,2233.61393 L1016.96197,2233.29806 L1016.97941,2233.24323 Z M1023.42857,2233.80952 C1022.63959,2233.80952 1022,2234.34252 1022,2235 C1022,2235.65748 1022.63959,2236.19048 1023.42857,2236.19048 C1024.21755,2236.19048 1024.85714,2235.65748 1024.85714,2235 C1024.85714,2234.34252 1024.21755,2233.80952 1023.42857,2233.80952 Z M1030.09524,2233.80952 C1029.30626,2233.80952 1028.66667,2234.34252 1028.66667,2235 C1028.66667,2235.65748 1029.30626,2236.19048 1030.09524,2236.19048 C1030.88422,2236.19048 1031.52381,2235.65748 1031.52381,2235 C1031.52381,2234.34252 1030.88422,2233.80952 1030.09524,2233.80952 Z"
                id="Combined-Shape"
            />
        </g>
    </g>
</svg>
