<svg
    id="Layer_1"
    data-name="Layer 1"
    xmlns="http://www.w3.org/2000/svg"
    viewBox="0 0 30 30"
><title>irc</title><g id="Page-1"><g id="Developments"><path
                id="Combined-Shape"
                d="M15,0A15,15,0,1,1,0,15,15,15,0,0,1,15,0Zm6.87,11.91a4,4,0,0,0-1.41.24,3.1,3.1,0,0,0-1.12.71A3.31,3.31,0,0,0,18.6,14a4.1,4.1,0,0,0-.27,1.53,3.75,3.75,0,0,0,.89,2.67,3.37,3.37,0,0,0,2.58.94A5.41,5.41,0,0,0,23.18,19a4.12,4.12,0,0,0,.81-.29l.12-.07-.43-1.25-.29.13a2.49,2.49,0,0,1-.37.13l-.48.1a4.24,4.24,0,0,1-.61,0,2.19,2.19,0,0,1-.92-.17,1.63,1.63,0,0,1-.62-.48,1.89,1.89,0,0,1-.34-.71,3.64,3.64,0,0,1-.1-.9,2.87,2.87,0,0,1,.16-1,1.92,1.92,0,0,1,.43-.69,1.59,1.59,0,0,1,.61-.38,2.13,2.13,0,0,1,.71-.12,3.55,3.55,0,0,1,1,.12,4.09,4.09,0,0,1,.58.21l.17.08L24,12.44l-.26-.14a3.16,3.16,0,0,0-.45-.17,5.22,5.22,0,0,0-.63-.15A4.51,4.51,0,0,0,21.87,11.91Zm-11.51.16H8.8V19h1.56ZM14,12q-.43,0-1,0l-.71.08-.34.06V19h1.56V16.47h.77q.2.24.4.53l.4.63q.2.33.4.68l.19.35h0l.19.34h1.75q-.18-.38-.39-.77t-.43-.76q-.22-.36-.45-.7t-.44-.6a2.21,2.21,0,0,0,1-.71,2,2,0,0,0,.33-1.19,1.93,1.93,0,0,0-.83-1.73A4.29,4.29,0,0,0,14,12Zm.09,1.33a2.38,2.38,0,0,1,1.14.22.76.76,0,0,1,.39.72.79.79,0,0,1-.38.75,2.65,2.65,0,0,1-1.26.22h-.44V13.35l.26,0Z"
            /></g></g></svg>
