<svg
    id="Layer_1"
    data-name="Layer 1"
    xmlns="http://www.w3.org/2000/svg"
    viewBox="0 0 57.01 56.01"
><defs><style
        >.cls-1,.cls-3{fill:#fff;}.cls-1{stroke:#000;stroke-miterlimit:10;}.cls-2{fill:#c4c4c4;}</style></defs><title
    >linux</title><g id="Group_4" data-name="Group 4"><path
            id="Combined_Shape"
            data-name="Combined Shape"
            d="M41.85,55.53a2.72,2.72,0,0,1-.93-.74,4,4,0,0,1-.52-.8,1.41,1.41,0,0,0-.69-.61,3.7,3.7,0,0,0-1.48-.3c-.9,0-2.24,0-4.1,0-.41,0-1,0-1.8,0h-.19l-1.64.07a7.35,7.35,0,0,0-2.51.47,5.72,5.72,0,0,0-1.69.94,6.21,6.21,0,0,1-1.37.89,3.56,3.56,0,0,1-1.55.36h-.13a14.59,14.59,0,0,1-3.5-1,32.7,32.7,0,0,0-4.6-1.34l-1.61-.3L12,52.95c-.37-.07-.79-.17-1.25-.3a3.55,3.55,0,0,1-1.06-.45,1.55,1.55,0,0,1-.54-.61,2.83,2.83,0,0,1,.22-2.08,9.29,9.29,0,0,0,.57-1.7,4.83,4.83,0,0,0-.13-1.25c-.1-.49-.21-.94-.31-1.33a3.9,3.9,0,0,1-.14-1.14,1.12,1.12,0,0,1,.33-.84,3.21,3.21,0,0,1,1.8-.44,4.5,4.5,0,0,0,1.89-.37,4.38,4.38,0,0,0,1.32-1.09A2.76,2.76,0,0,0,15,39.75c.44,1.51.1,2.63-1,3.31a3.76,3.76,0,0,1-2,.5c-.2,0-.4,0-.62,0l-.38,0a1.15,1.15,0,0,0-1,.33c-.27.31-.22.91.16,1.78a5,5,0,0,0,.25.56c.12.24.21.43.27.56a2.8,2.8,0,0,1,.14.53,2.56,2.56,0,0,1,0,.69,4.11,4.11,0,0,1-.54,1.53A2.75,2.75,0,0,0,9.94,51c.06.35.46.63,1.17.81.42.13,1.32.32,2.67.58s2.4.47,3.14.64c.49.12,1.26.35,2.34.69s1.92.57,2.6.72a6.33,6.33,0,0,0,1.29.15l.46,0a3.44,3.44,0,0,0,2-.87,2.3,2.3,0,0,0,.73-1.5,5.68,5.68,0,0,0-.24-1.83,8.75,8.75,0,0,0-.6-1.62c-.21-.4-.42-.78-.63-1.14A66.73,66.73,0,0,0,19.55,40,4,4,0,0,0,17,38.45a1.59,1.59,0,0,0-1,.33.29.29,0,0,1-.17.08c-.14,0-.24-.18-.3-.55a5.24,5.24,0,0,1-.06-1.19,4.87,4.87,0,0,1,.32-1.63A9,9,0,0,1,16.53,34a8.15,8.15,0,0,0,.69-1.31c.17-.45.46-1.23.84-2.25s.7-1.88.93-2.44a17.5,17.5,0,0,1,.95-1.91,7.7,7.7,0,0,1,1.23-1.69c2.3-3,3.62-5,3.91-6.09-.25-2.32-.42-5.58-.5-9.69a11.44,11.44,0,0,1,.76-4.73A7.06,7.06,0,0,1,32,0h.22A12,12,0,0,1,35.3.42a8.36,8.36,0,0,1,2.8,1.3A9.1,9.1,0,0,1,41,5.52a9.76,9.76,0,0,1,.93,4.61,20.09,20.09,0,0,0,.95,6.69,17.33,17.33,0,0,0,4.19,6.81,17.7,17.7,0,0,1,3.14,5.09,27.06,27.06,0,0,1,1.88,6,10.89,10.89,0,0,1,.16,2.64,5.45,5.45,0,0,1-.38,1.73c-.19.42-.4.65-.63.69a1.51,1.51,0,0,0-.74.59c-.28.34-.56.72-.85,1.11a3.87,3.87,0,0,1-1.28,1,3.65,3.65,0,0,1-1.78.44h-.14a4.38,4.38,0,0,1-1-.16,1.58,1.58,0,0,1-.71-.42,5.72,5.72,0,0,1-.43-.48,4.23,4.23,0,0,1-.36-.64c-.14-.28-.24-.5-.28-.61-.39-.65-.76-1-1.1-1a.57.57,0,0,0-.19,0c-.4.15-.69.66-.88,1.53a6.19,6.19,0,0,0,.22,3,15,15,0,0,1,0,6.09,3.93,3.93,0,0,0,.57,3.14,2.6,2.6,0,0,0,2.12,1h.18a4.61,4.61,0,0,0,2.68-1.11,22.81,22.81,0,0,1,2.82-2.08A20.77,20.77,0,0,1,53.37,50a8.77,8.77,0,0,0,2.43-1.14c.5-.38.7-.75.58-1.08a1.8,1.8,0,0,0-.79-.89A7.78,7.78,0,0,0,54,46.16a2.6,2.6,0,0,1-1.56-1.5,5,5,0,0,1-.47-2.26,2.05,2.05,0,0,1,.49-1.49,7.59,7.59,0,0,0,.25,1.77,7.13,7.13,0,0,0,.46,1.26,3.67,3.67,0,0,0,.65.89,4.76,4.76,0,0,0,.66.59c.17.11.39.25.68.41l.52.3a4.1,4.1,0,0,1,1,.77,1.34,1.34,0,0,1,.38.75,1.74,1.74,0,0,1-.08.7,1.67,1.67,0,0,1-.49.69,9.43,9.43,0,0,1-.74.61,8.19,8.19,0,0,1-.95.58l-1,.52-1,.48-.09,0-.76.36a16.69,16.69,0,0,0-2.7,1.75,30.66,30.66,0,0,0-2.38,2,3.67,3.67,0,0,1-2.15.61l-.51,0A5.38,5.38,0,0,1,41.85,55.53ZM19,32.37l-.13.16c-.75,1.35-.65,3.1.31,5.19a2.55,2.55,0,0,0,.79.88c.41.32.67.54.76.63A33,33,0,0,0,24,42c1.79,1.42,2.75,2.2,2.93,2.39a1.72,1.72,0,0,1,.55,1.19A1.93,1.93,0,0,1,27.08,47a2,2,0,0,1-1.43.72,14.46,14.46,0,0,0,.91,1.39,5.71,5.71,0,0,1,.88,1.69,8.45,8.45,0,0,1,.22,2.2,1.36,1.36,0,0,0,.73-.82,2.78,2.78,0,0,0-.51-2.06,2.71,2.71,0,0,0-.33-.5l-.3-.37c-.06-.08-.08-.15-.06-.19a.9.9,0,0,1,.41-.3.61.61,0,0,1,.25-.06.68.68,0,0,1,.38.13A4.61,4.61,0,0,0,31.82,50a12.77,12.77,0,0,0,1.65-.12c2.78-.31,4.66-1.23,5.58-2.72.4-.65.71-1,.94-1a.22.22,0,0,1,.13,0c.25.13.36.67.32,1.63a13,13,0,0,1-.73,2.88,2.15,2.15,0,0,0-.19,1.17c.06.3.32.46.76.49.07-.41.22-1.22.46-2.41a22.77,22.77,0,0,0,.43-2.81,10.57,10.57,0,0,0-.2-2.3,16.83,16.83,0,0,1-.24-3,3.42,3.42,0,0,1,.72-2.2,2,2,0,0,1,1.61-.56,1.77,1.77,0,0,1,1.09-1.66,3.88,3.88,0,0,1,1.67-.37,4.5,4.5,0,0,1,.62,0,3.88,3.88,0,0,1,1.89.7c0-.37-.58-.81-1.74-1.31l.24-.86a5.13,5.13,0,0,0,.16-.81c0-.3.06-.51.09-.67a2.93,2.93,0,0,0,0-.7c0-.29,0-.5,0-.61a4.48,4.48,0,0,0-.11-.69c-.07-.33-.11-.56-.13-.64s-.07-.35-.16-.78l-.17-.83A9.29,9.29,0,0,0,45,26.71a7.42,7.42,0,0,0-2.27-2.34A9.07,9.07,0,0,1,44.53,27c1.82,3.36,2.39,6.28,1.7,8.69A1.62,1.62,0,0,1,44.66,37l-.28,0a.88.88,0,0,1-.94-.6,9.8,9.8,0,0,1-.25-2.61,15,15,0,0,0-.36-3.34,20.09,20.09,0,0,0-.62-2.16,8.79,8.79,0,0,0-.62-1.42c-.19-.32-.35-.58-.49-.76a3.12,3.12,0,0,0-.41-.47l-.07-.06-.17-.16a20.11,20.11,0,0,0-1-3.22,7.52,7.52,0,0,0-.93-1.75,8.54,8.54,0,0,1-.74-1,3.6,3.6,0,0,1-.47-1.25,3.57,3.57,0,0,1,.19-1.67,2.73,2.73,0,0,0,.14-1.55c-.12-.35-.59-.62-1.4-.78a6.26,6.26,0,0,1-1.4-.56,7,7,0,0,0-1.12-.5c-.17,0-.28-.29-.35-.81a3.08,3.08,0,0,1,.25-1.59,1.24,1.24,0,0,1,1.14-.84H35a1.44,1.44,0,0,1,1.42.94,2.33,2.33,0,0,1,.13,1.81c-.23.39-.25.67-.06.83a.61.61,0,0,0,.4.12,1.8,1.8,0,0,0,.55-.11c.27-.08.41-.46.41-1.12V11.16a7,7,0,0,0-.44-1.56,2.51,2.51,0,0,0-.66-1A3,3,0,0,0,36,8.18a4.5,4.5,0,0,0-.85-.23,3.06,3.06,0,0,0-2.27,1,4.07,4.07,0,0,0-.54,3.18,1.43,1.43,0,0,1,0,.47,1.44,1.44,0,0,0-.93-.33l-.5,0a3.63,3.63,0,0,0-.54,0h-.16a.32.32,0,0,1-.33-.17,5.94,5.94,0,0,0-.5-2.81,1.68,1.68,0,0,0-1.42-1.06h-.06a1.37,1.37,0,0,0-1.25.86A4.73,4.73,0,0,0,26.09,11a4.48,4.48,0,0,0,.11,1.16,4.13,4.13,0,0,0,.4,1.17c.16.28.31.43.44.43h.05a.86.86,0,0,0,.5-.44.21.21,0,0,0,0-.19.2.2,0,0,0-.17-.06h-.07c-.15,0-.31-.15-.49-.45a2.26,2.26,0,0,1-.3-1,1.87,1.87,0,0,1,.28-1.16,1.09,1.09,0,0,1,1-.44h.1a1,1,0,0,1,.85.65,2.68,2.68,0,0,1,.3,1.22,4.79,4.79,0,0,1,0,.69,3.5,3.5,0,0,0-1,.9,2.62,2.62,0,0,1-.87.73l-.65.39a1.76,1.76,0,0,0-.49.84.46.46,0,0,0,.24.56,3.5,3.5,0,0,1,.79.61,5,5,0,0,1,.5.59,1.23,1.23,0,0,0,.58.41,3.37,3.37,0,0,0,1.12.2h.31a10,10,0,0,0,2.9-.47s.29-.1.73-.22l1.09-.33a6.17,6.17,0,0,0,.93-.41,1.6,1.6,0,0,0,.66-.55.55.55,0,0,1,.43-.31.43.43,0,0,1,.2.06.43.43,0,0,1,.2.27.44.44,0,0,1-.09.38.86.86,0,0,1-.52.3,18.41,18.41,0,0,0-1.78.67l-1.43.61a9.87,9.87,0,0,1-2.21.72,4.33,4.33,0,0,1-.82.07,13.57,13.57,0,0,1-1.67-.13l-.17,0c-.05,0-.09,0-.1,0a.06.06,0,0,0,0,.05,2.34,2.34,0,0,0,.54.59,2.86,2.86,0,0,0,2,.69h.12a4.76,4.76,0,0,0,1.14-.22,9.18,9.18,0,0,0,1.14-.44c.36-.17.72-.35,1.06-.55l.95-.53a7.44,7.44,0,0,1,.77-.37,1.15,1.15,0,0,1,.41-.1l.14,0a.42.42,0,0,1,.27.34.38.38,0,0,1-.16.3l-.19.14-.27.16-.28.14-.32.16a2,2,0,0,1-.3.14,14.38,14.38,0,0,0-2.13,1.38,13.14,13.14,0,0,1-2.1,1.34,2,2,0,0,1-.84.21,1.46,1.46,0,0,1-.7-.18,7.83,7.83,0,0,1-2-2.28c-.36-.5-.6-.75-.72-.75s-.06,0-.07.06a1.1,1.1,0,0,0,0,.31,4.19,4.19,0,0,1-.46,1.78c-.32.65-.63,1.24-.93,1.73a5.42,5.42,0,0,0-.66,1.81,2.65,2.65,0,0,0,.36,2c-.48.12-1.15,1.07-2,2.81a16.1,16.1,0,0,0-1.5,4.41,21,21,0,0,0,0,2.16A4.62,4.62,0,0,1,21,37.53c-.09.26-.22.4-.39.4a.85.85,0,0,1-.53-.31,4.31,4.31,0,0,1-1.14-2.94,6.16,6.16,0,0,1,.13-1.75c.06-.31.07-.48,0-.54l0,0Zm2.15-5.66a2.48,2.48,0,0,0-.14.39,1.86,1.86,0,0,1-.17.42,3,3,0,0,1-.31.41c-.1.14-.13.24-.11.3a.12.12,0,0,0,.08.07h0a.67.67,0,0,0,.36-.22,1.57,1.57,0,0,0,.39-.56c0-.07,0-.14.06-.22a.94.94,0,0,1,.06-.19.57.57,0,0,0,0-.14.63.63,0,0,0,0-.12v-.09a.11.11,0,0,0,0-.08l-.1-.06h0a.16.16,0,0,0-.14.11Zm18.55-10c-.29.33-.22.79.22,1.36a2.42,2.42,0,0,0,1.23,1h.06a.46.46,0,0,0,.4-.25.86.86,0,0,0,.11-.62.64.64,0,0,0-.21-.36,1,1,0,0,0-.41-.16,1.17,1.17,0,0,1-.46-.17,1.27,1.27,0,0,1-.3-.25L40.14,17l-.17-.2-.13-.12h0A.25.25,0,0,0,39.71,16.69ZM27.79,10.81a.3.3,0,0,0,.16.19.23.23,0,0,1,.19.07.49.49,0,0,1,0,.4.71.71,0,0,0,.06.55.24.24,0,0,0,.19.08.08.08,0,0,0,.1-.1,1.64,1.64,0,0,0-.08-.94c-.11-.27-.24-.43-.36-.47H28C27.85,10.58,27.79,10.66,27.79,10.81Zm7.54-.4c-.18,0-.27,0-.29.09s0,.07.07.12l.09,0,0,0c.29.08.48.41.57,1a0,0,0,0,0,0,0h0a.55.55,0,0,0,.22-.1l.06-.09a1.23,1.23,0,0,0-.51-1,.49.49,0,0,0-.24-.1h0Zm.71-7a.69.69,0,0,0,0,.4.71.71,0,0,1,0,.39,1,1,0,0,1-.19.33,1.66,1.66,0,0,0-.19.28c0,.05,0,.14.1.27a.21.21,0,0,0,.13,0,.22.22,0,0,0,.13,0l.35-.28a1.57,1.57,0,0,1,.47-.28.65.65,0,0,1,.28,0,1.73,1.73,0,0,0,.47-.06.4.4,0,0,0,.28-.22.27.27,0,0,0-.08-.16,1.23,1.23,0,0,0-.28-.22l-.3-.19a1.3,1.3,0,0,0-.76-.47.4.4,0,0,0-.36.24Zm-7.27,9.89q0-.37.6-.47h.32a.56.56,0,0,0-.49.33c-.09.2-.18.3-.27.3h0c-.08,0-.12-.06-.12-.16Zm3.3-.23a.52.52,0,0,0-.55-.14q.76-.34,1,.06a.19.19,0,0,1,0,.26l0,0h0a.58.58,0,0,1-.33-.21Z"
            transform="translate(0 0.01)"
        /><g id="Yumi_Face" data-name="Yumi Face"><g
                id="Group_2"
                data-name="Group 2"
            ><path
                    id="Combined-Shape"
                    class="cls-1"
                    d="M16.82,18q2.63,0,5.26,0a9.51,9.51,0,0,1,9.2,9.67v.56A9.51,9.51,0,0,1,22.12,38q-2.61,0-5.21,0t-5.12,0a9.51,9.51,0,0,1-9.16-9.67v-.57A9.51,9.51,0,0,1,11.84,18q2.17,0,4.36,0Z"
                    transform="translate(0 0.01)"
                /><path
                    id="Combined-Shape-path"
                    class="cls-2"
                    d="M16.82,18q2.63,0,5.26,0a9.51,9.51,0,0,1,9.2,9.67v.56A9.51,9.51,0,0,1,22.12,38q-2.61,0-5.21,0l-.72-20Z"
                    transform="translate(0 0.01)"
                /><path
                    id="Rectangle"
                    d="M12.09,21.89q2.38,0,4.81,0t5,0a6.18,6.18,0,0,1,0,12.34q-2.47,0-4.93,0t-4.86,0a6.18,6.18,0,0,1,0-12.35Z"
                    transform="translate(0 0.01)"
                /><path
                    id="Face"
                    class="cls-3"
                    d="M14.65,30h4.69a2.53,2.53,0,0,1-2.39,2.11A2.58,2.58,0,0,1,14.65,30Zm4.74-2.16a1.85,1.85,0,1,1,3.69-.12s0,.08,0,.12a1.85,1.85,0,1,1-3.69.12S19.39,27.92,19.39,27.88Zm-8.88,0a1.85,1.85,0,1,1,3.7,0h0a1.85,1.85,0,1,1-3.7,0Z"
                    transform="translate(0 0.01)"
                /><path
                    id="Combined_Shape-2"
                    data-name="Combined Shape-2"
                    d="M31.64,27.68a12.14,12.14,0,0,0-.47-2.74l0-.1.71,0a2,2,0,0,1,2.06,1.9v0L34,28.29a2,2,0,0,1-1.83,2.14h0l-.71,0A11.11,11.11,0,0,0,31.64,27.68ZM1.86,30.44A2,2,0,0,1,0,28.29l.08-1.57a2,2,0,0,1,2.05-1.93h0l.71,0a12.15,12.15,0,0,0-.5,2.85,11.11,11.11,0,0,0,.22,2.79Z"
                    transform="translate(0 0.01)"
                /></g></g></g></svg>
