<svg
    id="Layer_1"
    data-name="Layer 1"
    xmlns="http://www.w3.org/2000/svg"
    viewBox="0 0 50 47"
><defs><style
        >.cls-1,.cls-3{fill:#fff;}.cls-1{stroke:#000;stroke-miterlimit:10;}.cls-2{fill:#c4c4c4;}</style></defs><title
    >mac</title><g id="Group_13" data-name="Group 13"><path
            id="Combined_Shape"
            data-name="Combined Shape"
            d="M22.8,47c-3.43,0-6.05-3.42-8-6.44C9.29,32.12,8.71,22.21,12.1,16.94,14.51,13.19,18.31,11,21.88,11s5.92,2,8.93,2,4.7-2,8.9-2a11.84,11.84,0,0,1,8.95,4.77C40.79,20.12,42.06,31.45,50,34.49a33.91,33.91,0,0,1-3,5.7c-2,3-4.73,6.78-8.16,6.81a7.59,7.59,0,0,1-3.58-1,9.38,9.38,0,0,0-4.38-1c-4.11,0-5,2-8,2Zm6.54-35.69a9.6,9.6,0,0,1,2.33-7.44A11,11,0,0,1,38.78,0a10.36,10.36,0,0,1-2.26,7.63,9.33,9.33,0,0,1-7,3.68h-.2Z"
            transform="translate(0)"
        /><g id="Yumi_Face" data-name="Yumi Face"><g
                id="Group_2"
                data-name="Group 2"
            ><path
                    id="Combined-Shape"
                    class="cls-1"
                    d="M16.82,13q2.63,0,5.26,0a9.51,9.51,0,0,1,9.2,9.67v.56A9.51,9.51,0,0,1,22.12,33q-2.61,0-5.21,0t-5.12,0a9.51,9.51,0,0,1-9.16-9.67v-.57A9.51,9.51,0,0,1,11.84,13q2.17,0,4.36,0Z"
                    transform="translate(0)"
                /><path
                    id="Combined-Shape-path"
                    class="cls-2"
                    d="M16.82,13q2.63,0,5.26,0a9.51,9.51,0,0,1,9.2,9.67v.56A9.51,9.51,0,0,1,22.12,33q-2.61,0-5.21,0l-.72-20Z"
                    transform="translate(0)"
                /><path
                    id="Rectangle"
                    d="M12.09,16.89q2.38,0,4.81,0t5,0a6.18,6.18,0,0,1,0,12.34q-2.47,0-4.93,0t-4.86,0a6.18,6.18,0,0,1,0-12.35Z"
                    transform="translate(0)"
                /><path
                    id="Face"
                    class="cls-3"
                    d="M14.65,25h4.69a2.53,2.53,0,0,1-2.39,2.11A2.58,2.58,0,0,1,14.65,25Zm4.74-2.16a1.85,1.85,0,1,1,3.69-.12s0,.08,0,.12a1.85,1.85,0,1,1-3.69.12S19.39,22.92,19.39,22.88Zm-8.88,0a1.85,1.85,0,1,1,3.7,0h0a1.85,1.85,0,1,1-3.7,0Z"
                    transform="translate(0)"
                /><path
                    id="Combined_Shape-2"
                    data-name="Combined Shape-2"
                    d="M31.64,22.68a12.14,12.14,0,0,0-.47-2.74l0-.1.71,0a2,2,0,0,1,2.06,1.9v0L34,23.29a2,2,0,0,1-1.83,2.14h0l-.71,0A11.11,11.11,0,0,0,31.64,22.68ZM1.86,25.44A2,2,0,0,1,0,23.29l.08-1.57a2,2,0,0,1,2.05-1.93h0l.71,0a12.15,12.15,0,0,0-.5,2.85,11.11,11.11,0,0,0,.22,2.79Z"
                    transform="translate(0)"
                /></g></g></g></svg>
