<svg
    width="30"
    height="30"
    viewBox="0 0 30 30"
    fill="none"
    xmlns="http://www.w3.org/2000/svg"
>
<path
        fill-rule="evenodd"
        clip-rule="evenodd"
        d="M15 30C23.2843 30 30 23.2843 30 15C30 6.71573 23.2843 0 15 0C6.71573 0 0 6.71573 0 15C0 23.2843 6.71573 30 15 30ZM25.5317 17.7883C25.2083 19.4107 22.6352 21.1863 19.68 21.5304C18.139 21.7098 16.6218 21.8746 15.004 21.8022C12.3581 21.684 10.2703 21.1863 10.2703 21.1863C10.2703 21.4375 10.2862 21.6767 10.318 21.9003C10.6619 24.4467 12.9072 24.5993 15.0339 24.6704C17.1806 24.742 19.092 24.1543 19.092 24.1543L19.1801 26.0467C19.1801 26.0467 17.6787 26.833 15.004 26.9776C13.529 27.0567 11.6977 26.9414 9.56468 26.3908C4.93853 25.1968 4.14294 20.3879 4.0212 15.5086C3.99392 14.4434 3.99907 13.4229 4.0037 12.5031C4.00537 12.1719 4.00697 11.8537 4.00697 11.5513C4.00697 6.56186 7.35923 5.09939 7.35923 5.09939C9.04953 4.34238 11.9499 4.02404 14.9652 4H15.0393C18.0545 4.02404 20.9569 4.34238 22.647 5.09939C22.647 5.09939 25.9992 6.56186 25.9992 11.5513C25.9992 11.5513 26.0412 15.2325 25.5317 17.7883ZM22 12.0073V18H19.5613V12.1834C19.5613 10.9573 19.0314 10.335 17.9715 10.335C16.7996 10.335 16.2122 11.0732 16.2122 12.533V15.7168H13.7879V12.533C13.7879 11.0732 13.2004 10.335 12.0285 10.335C10.9686 10.335 10.4387 10.9573 10.4387 12.1834V18H8V12.0073C8 10.7825 8.32032 9.80925 8.96373 9.08919C9.62721 8.36913 10.4961 8 11.5747 8C12.8227 8 13.7677 8.46697 14.3926 9.40104L15 10.3924L15.6076 9.40104C16.2323 8.46697 17.1773 8 18.4254 8C19.5039 8 20.3728 8.36913 21.0364 9.08919C21.6797 9.80925 22 10.7825 22 12.0073Z"
        fill="black"
    />
</svg>
