<svg
    width="30"
    height="30"
    viewBox="0 0 30 30"
    fill="none"
    xmlns="http://www.w3.org/2000/svg"
>
<path
        fill-rule="evenodd"
        clip-rule="evenodd"
        d="M15 30C23.2843 30 30 23.2843 30 15C30 6.71573 23.2843 0 15 0C6.71573 0 0 6.71573 0 15C0 23.2843 6.71573 30 15 30ZM15.0022 5C16.5412 5 17.824 6.13688 18.0619 7.61168C19.2727 6.73721 20.9837 6.84066 22.0717 7.92892C23.1597 9.01752 23.2635 10.7285 22.3889 11.9395C22.2937 12.0716 22.1903 12.1992 22.0717 12.3178L20.1214 14.2685C19.7798 14.6102 19.3754 14.8516 18.9455 14.9998C18.8231 15.042 18.6985 15.0764 18.5727 15.1029C18.6454 14.8472 18.6842 14.5778 18.6842 14.2995C18.6842 12.6516 17.3227 11.3158 15.6433 11.3158H15.0793C15.0575 11.2283 15.0318 11.1415 15.0022 11.0558C14.8543 10.6258 14.6127 10.2213 14.271 9.87957L12.3235 7.93161L14.271 9.87992C14.6127 10.2216 14.854 10.6261 15.0022 11.0561C15.0317 11.1417 15.0574 11.2284 15.0792 11.3158H13.0702C12.4964 11.3158 11.987 11.586 11.6669 12.0039C11.4097 11.9341 11.1394 11.8968 10.8608 11.8968H8.10275C7.93658 11.8968 7.77455 11.9137 7.61528 11.9388C6.74133 10.7278 6.84476 9.01717 7.93279 7.92892C9.02082 6.84066 10.7318 6.73721 11.9426 7.61168C12.1805 6.13688 13.4633 5 15.0022 5ZM15.6433 17.2831C17.0389 17.2831 18.215 16.3606 18.5726 15.1032C18.6985 15.0767 18.823 15.0424 18.9455 15.0002C19.3754 14.8519 19.7798 14.6105 20.1214 14.2688L22.0717 12.3181C22.1903 12.1995 22.2937 12.0719 22.3889 11.9399C23.8634 12.1775 25 13.4609 25 15.0002C25 16.5395 23.8634 17.8225 22.3889 18.0605C23.2635 19.2715 23.1597 20.9828 22.0717 22.0711C20.9837 23.1593 19.2727 23.2628 18.0619 22.3883C17.824 23.8631 16.5412 25 15.0022 25C13.4633 25 12.1805 23.8631 11.9426 22.3883C10.7318 23.2628 9.02082 23.1593 7.93279 22.0711C6.846 20.9841 6.74157 19.2754 7.61263 18.0646C6.13682 17.8278 5 16.5403 5 15.0002C5 13.4595 6.13871 12.1754 7.61528 11.9395L7.61562 11.9399C7.61562 11.9395 7.61528 11.9392 7.61528 11.9392C7.77455 11.9137 7.93658 11.8968 8.10275 11.8968H10.8608C11.1394 11.8968 11.4097 11.9341 11.6669 12.0039C11.4464 12.2917 11.3158 12.6494 11.3158 13.0371V19.7368L13.8605 17.2831H15.6433ZM15.0022 18.9442C15.1501 19.3742 15.3918 19.7787 15.7335 20.1204C15.3918 19.7787 15.1505 19.3742 15.0022 18.9442Z"
        fill="black"
    />
</svg>
