<svg
    width="30"
    height="30"
    viewBox="0 0 30 30"
    fill="none"
    xmlns="http://www.w3.org/2000/svg"
>
<path
        fill-rule="evenodd"
        clip-rule="evenodd"
        d="M25.6066 4.39339C22.7735 1.56029 19.0066 0 15 0C10.9934 0 7.22649 1.56029 4.39339 4.39339C1.56029 7.22649 0 10.9934 0 15C0 19.0066 1.56029 22.7735 4.39339 25.6066C7.22649 28.4397 10.9934 30 15 30C19.0066 30 22.7735 28.4397 25.6066 25.6066C28.4397 22.7735 30 19.0066 30 15C30 10.9934 28.4397 7.22649 25.6066 4.39339ZM9.91768 21.5588C9.11316 21.5588 8.45833 20.9042 8.45833 20.0995C8.45833 19.2947 9.11316 18.6401 9.91768 18.6401C10.7224 18.6401 11.377 19.2947 11.377 20.0995C11.377 20.9042 10.7224 21.5588 9.91768 21.5588ZM13.7425 20.9686C13.7425 21.454 14.1362 21.8475 14.6214 21.8475C15.1069 21.8475 15.5003 21.454 15.5003 20.9686C15.5003 17.411 12.6061 14.5168 9.04861 14.5168C8.56316 14.5168 8.16971 14.9103 8.16971 15.3957C8.16971 15.881 8.56316 16.2746 9.04861 16.2746C11.6368 16.2746 13.7425 18.3804 13.7425 20.9686ZM18.5527 21.8475C18.0672 21.8475 17.6738 21.454 17.6738 20.9686C17.6738 16.2126 13.8046 12.3434 9.04861 12.3434C8.56316 12.3434 8.16971 11.9499 8.16971 11.4645C8.16971 10.979 8.56316 10.5856 9.04861 10.5856C14.7739 10.5856 19.4316 15.2433 19.4316 20.9686C19.4316 21.454 19.0382 21.8475 18.5527 21.8475ZM21.5582 20.9686C21.5582 21.454 21.9518 21.8475 22.4371 21.8475C22.9225 21.8475 23.316 21.454 23.316 20.9686C23.316 17.1577 21.8319 13.5748 19.1373 10.8799C16.4424 8.18527 12.8595 6.7012 9.04861 6.7012C8.56316 6.7012 8.16971 7.09465 8.16971 7.58011C8.16971 8.06557 8.56316 8.45901 9.04861 8.45901C15.9464 8.45901 21.5582 14.0707 21.5582 20.9686Z"
        fill="black"
    />
</svg>
