<svg
    width="30"
    height="30"
    viewBox="0 0 30 30"
    fill="none"
    xmlns="http://www.w3.org/2000/svg"
>
<path
        fill-rule="evenodd"
        clip-rule="evenodd"
        d="M15 30C23.2843 30 30 23.2843 30 15C30 6.71573 23.2843 0 15 0C6.71573 0 0 6.71573 0 15C0 23.2843 6.71573 30 15 30ZM24.1262 14.3068C23.739 14.3068 23.366 14.389 23.0371 14.5286C22.8076 11.9908 20.6848 10 18.0763 10C17.4462 10 16.8285 10.1291 16.27 10.3433C16.0549 10.4293 16.0119 10.5154 15.9975 10.6866V19.6443C16.0128 19.8164 16.1409 19.9598 16.3131 19.9742H24.1396C25.6877 19.9895 26.9489 18.7426 26.9489 17.1801C26.9489 15.6177 25.6877 14.3574 24.1396 14.3574L24.1262 14.3068ZM15.4257 10.699C15.4831 10.699 15.5261 10.7143 15.5691 10.7573L15.5835 10.6952C15.6705 10.7487 15.7413 10.8453 15.7413 10.96L15.8847 17.3064L15.7413 19.6146C15.7413 19.7858 15.5988 19.9292 15.4257 19.9292C15.2536 19.9292 15.1121 19.7858 15.1121 19.629L15.0537 18.4959L14.9811 17.3341L15.1121 11.0145V10.9868C15.1121 10.9007 15.1541 10.8156 15.2259 10.7573C15.2832 10.7143 15.3549 10.699 15.4257 10.699ZM14.6072 11.2804C14.5642 11.2526 14.5068 11.2383 14.4494 11.2383C14.392 11.2383 14.3356 11.2526 14.2916 11.2804C14.2056 11.332 14.1492 11.4238 14.1492 11.5242V11.5825L14.0497 17.3657L14.1597 19.7074V19.715C14.1673 19.7724 14.1884 19.8441 14.2304 19.8872C14.2859 19.9455 14.3662 19.9866 14.4542 19.9866C14.5307 19.9866 14.6053 19.9445 14.654 19.9006C14.7095 19.8432 14.7411 19.7715 14.7411 19.6854L14.7554 19.4559L14.8673 17.3494L14.7382 11.5299C14.7382 11.4305 14.6799 11.3454 14.6091 11.3014L14.6072 11.2804ZM11.5818 11.8885C11.7108 11.8885 11.8112 11.9889 11.8112 12.118L11.8265 12.1037L11.9834 17.3207L11.8265 19.7141C11.8265 19.8432 11.7261 19.9436 11.5971 19.9436C11.468 19.9436 11.3676 19.8432 11.3523 19.7141L11.2098 17.3207L11.3523 12.118C11.3523 11.9889 11.468 11.8885 11.5818 11.8885ZM10.6217 12.0903C10.506 12.0903 10.42 12.1754 10.4066 12.2901L10.2488 17.3341L10.4066 19.7437C10.42 19.8575 10.506 19.9589 10.6217 19.9589C10.7355 19.9589 10.8369 19.8585 10.8369 19.7437L11.0233 17.3341L10.8359 12.2901C10.8359 12.1754 10.7355 12.075 10.6208 12.075L10.6217 12.0903ZM9.69239 12.5197C9.69395 12.5196 9.69551 12.5196 9.69707 12.5196H9.67604C9.67956 12.5196 9.68307 12.5197 9.68655 12.5199C9.59072 12.5257 9.51035 12.6092 9.50296 12.7051L9.33085 17.3637L9.48862 19.8002C9.48862 19.9149 9.57468 20 9.67508 20C9.77453 20 9.86059 19.9149 9.87589 19.8002L10.0604 17.3637L9.87684 12.7204C9.86208 12.6097 9.78233 12.5257 9.68655 12.5199C9.68849 12.5198 9.69044 12.5197 9.69239 12.5197ZM8.80206 13.4223C8.70549 13.4223 8.62995 13.5083 8.62995 13.5953L8.42915 17.379L8.60796 19.8298C8.60796 19.9159 8.68445 19.9866 8.78007 19.9866C8.86996 19.9866 8.94645 19.9006 8.95219 19.8145L9.15204 17.3637L8.95219 13.5657C8.94454 13.4662 8.86804 13.3936 8.78007 13.3936L8.80206 13.4223ZM6.92408 14.7122C6.85236 14.7122 6.79499 14.7696 6.78065 14.8413L6.5961 17.3657L6.7969 19.7982C6.8122 19.8719 6.86862 19.9302 6.93938 19.9302C7.01109 19.9302 7.06846 19.8719 7.08281 19.7868L7.3123 17.3657L7.08281 14.8575C7.08281 14.7858 7.02544 14.7284 6.95372 14.7284L6.92408 14.7122ZM5.89233 14.913C5.89233 14.8566 5.94875 14.8135 6.00708 14.8135L6.02046 14.7973C6.07784 14.7973 6.12086 14.8547 6.13616 14.912L6.37904 17.3484L6.13616 19.7141C6.12086 19.7705 6.07879 19.8288 6.02046 19.8288C5.9497 19.8288 5.90667 19.7715 5.90667 19.7141L5.69153 17.3637L5.89233 14.913ZM5.12354 15.2151L5.12055 15.2152L5.1178 15.2151H5.12354ZM5.12055 15.2152C5.16264 15.2169 5.20386 15.2574 5.20386 15.3108L5.46204 17.3704L5.21821 19.3832C5.2096 19.4387 5.17135 19.477 5.12354 19.477C5.07478 19.477 5.03366 19.4387 5.02697 19.3832L4.80417 17.3704L5.02697 15.3108C5.03352 15.2602 5.0731 15.217 5.12055 15.2152ZM4.25818 16.0069C4.2008 16.0069 4.17116 16.0423 4.15873 16.0968L4 17.3704L4.15777 18.6212C4.15777 18.6737 4.2008 18.711 4.24383 18.711C4.28686 18.711 4.32893 18.668 4.34328 18.6116L4.54408 17.3504L4.34328 16.0748C4.34328 16.0164 4.3012 15.9887 4.25722 15.9887L4.25818 16.0069ZM7.87646 14.9139C7.95678 14.9139 8.02371 14.9704 8.02849 15.0564L7.99694 15.0421L8.214 17.379L7.99694 19.8298C7.99694 19.9159 7.92618 19.9809 7.85542 19.9809C7.7751 19.9809 7.70339 19.9168 7.70339 19.8308L7.51214 17.38L7.71964 15.0564C7.72538 14.9713 7.7904 14.9139 7.87646 14.9139ZM12.5274 11.9899C12.3984 11.9899 12.2836 12.1037 12.2836 12.2327L12.1402 17.3217L12.2836 19.6864C12.2836 19.8298 12.3984 19.9302 12.5274 19.9302C12.6565 19.9302 12.7713 19.8155 12.7713 19.672L12.9147 17.3064L12.7569 12.2318C12.7569 12.0903 12.6422 11.9736 12.4978 11.9736L12.5274 11.9899ZM13.1872 12.4049C13.1872 12.2614 13.302 12.1323 13.4588 12.1323L13.475 12.184C13.6185 12.184 13.7361 12.2997 13.7476 12.4565L13.8766 17.3446L13.7609 19.6806C13.7485 19.8384 13.6319 19.9531 13.4894 19.9531C13.3316 19.9531 13.2178 19.8308 13.2178 19.6883L13.0887 17.3226L13.1872 12.4049Z"
        fill="black"
    />
</svg>
