<svg
    width="30"
    height="30"
    viewBox="0 0 30 30"
    fill="none"
    xmlns="http://www.w3.org/2000/svg"
>
<path
        fill-rule="evenodd"
        clip-rule="evenodd"
        d="M0 15C0 6.717 6.717 0 15 0C23.283 0 30 6.717 30 15C30 23.283 23.283 30 15 30C6.717 30 0 23.283 0 15ZM21.8587 12.1404C21.8587 11.9913 21.8555 11.843 21.8488 11.6954C22.5211 11.2095 23.1054 10.603 23.5661 9.91241C22.9493 10.1866 22.2855 10.3713 21.5891 10.4546C22.3 10.0282 22.8456 9.35394 23.1031 8.55034C22.4377 8.9447 21.7012 9.23126 20.9168 9.38599C20.2885 8.71674 19.3941 8.29811 18.4037 8.29811C16.5024 8.29811 14.9604 9.84009 14.9604 11.7407C14.9604 12.0108 14.9908 12.2736 15.0499 12.5258C12.1884 12.3818 9.65103 11.0117 7.95319 8.92845C7.65747 9.43726 7.48695 10.0282 7.48695 10.659C7.48695 11.8536 8.09464 12.908 9.01909 13.5249C8.45421 13.5075 7.92366 13.3523 7.45972 13.0943C7.45926 13.1087 7.45926 13.1227 7.45926 13.1383C7.45926 14.8055 8.64601 16.1977 10.2214 16.5131C9.9321 16.5921 9.62769 16.6344 9.31343 16.6344C9.0921 16.6344 8.87627 16.6125 8.66638 16.5722C9.10492 17.9402 10.3757 18.9356 11.8829 18.9635C10.7043 19.8871 9.21982 20.4373 7.60666 20.4373C7.32903 20.4373 7.05482 20.4215 6.78543 20.3897C8.3091 21.3663 10.1184 21.9363 12.0628 21.9363C18.3957 21.936 21.8587 16.6898 21.8587 12.1404Z"
        fill="black"
    />
</svg>
