<svg
    id="Group_4"
    data-name="Group 4"
    xmlns="http://www.w3.org/2000/svg"
    xmlns:xlink="http://www.w3.org/1999/xlink"
    viewBox="0 0 175.04 42.93"
><defs><style
        >.cls-1{fill:url(#linear-gradient);}.cls-2{fill:#fff;}</style><linearGradient
            id="linear-gradient"
            x1="-863.48"
            y1="548.23"
            x2="-864.43"
            y2="547.65"
            gradientTransform="matrix(132.48, 0, 0, -38.02, 114557.93, 20851.69)"
            gradientUnits="userSpaceOnUse"
        ><stop offset="0" stop-color="#e95420" /><stop
                offset="1"
                stop-color="#8b3583"
            /></linearGradient></defs><title>ubports-logo</title><g
        id="Combined_Shape"
        data-name="Combined Shape"
    ><path
            id="Combined_Shape-2"
            data-name="Combined Shape-2"
            class="cls-1"
            d="M63.19,36.83a3.63,3.63,0,1,1,3.63,3.63h0A3.63,3.63,0,0,1,63.19,36.83ZM42.56,21.49a15.33,15.33,0,0,1,19-14.91,1.27,1.27,0,0,1,.75.86.6.6,0,0,0,0,.13,4.83,4.83,0,0,0,5.88,3.17,1.27,1.27,0,0,1,1,.3,15.29,15.29,0,0,1,4.07,9.49h-4.6a.92.92,0,0,1-.75-.69l0-.12a.75.75,0,0,1,0-.1h0a10.1,10.1,0,1,0,.07,3.25.92.92,0,0,1,.89-.68h4.45A15.29,15.29,0,0,1,69.05,32a1.3,1.3,0,0,1-1,.23,4.8,4.8,0,0,0-1.36-.2A4.85,4.85,0,0,0,62,35.65a1.27,1.27,0,0,1-.69.79A15.34,15.34,0,0,1,42.56,21.49Zm68,14.38V15.15c.66-.16,1.49-.34,2.48-.53a18.53,18.53,0,0,1,3.44-.28,8.8,8.8,0,0,1,3.25.57,7,7,0,0,1,2.47,1.63,7.23,7.23,0,0,1,1.58,2.57,9.92,9.92,0,0,1,.56,3.41,11.06,11.06,0,0,1-.47,3.28,7.46,7.46,0,0,1-1.37,2.59,6.26,6.26,0,0,1-2.21,1.68,7.11,7.11,0,0,1-3,.6,7.3,7.3,0,0,1-2.39-.36,7.55,7.55,0,0,1-1.55-.69v6.26Zm3.93-19a8,8,0,0,0-1.13.21V27a5.79,5.79,0,0,0,1.47.81,5.56,5.56,0,0,0,2.11.39,4.52,4.52,0,0,0,2.06-.44,3.81,3.81,0,0,0,1.4-1.2,5.13,5.13,0,0,0,.78-1.8,10,10,0,0,0,.24-2.24,6,6,0,0,0-1.35-4.21,4.68,4.68,0,0,0-3.61-1.48A16.48,16.48,0,0,0,114.49,16.92Zm15.8,13.19A6.7,6.7,0,0,1,128,28.44a7.75,7.75,0,0,1-1.52-2.59,10,10,0,0,1-.54-3.37,10,10,0,0,1,.54-3.35,7.71,7.71,0,0,1,1.52-2.6,6.72,6.72,0,0,1,2.33-1.67,7.71,7.71,0,0,1,5.9,0,6.72,6.72,0,0,1,2.33,1.67,7.71,7.71,0,0,1,1.52,2.6,10,10,0,0,1,.54,3.35,10,10,0,0,1-.54,3.37,7.75,7.75,0,0,1-1.52,2.59,6.7,6.7,0,0,1-2.33,1.67A7.7,7.7,0,0,1,130.29,30.11ZM130,18.29a6.76,6.76,0,0,0-1.19,4.2,6.76,6.76,0,0,0,1.19,4.2,4.15,4.15,0,0,0,6.47,0,6.76,6.76,0,0,0,1.19-4.2,6.76,6.76,0,0,0-1.19-4.2,4.15,4.15,0,0,0-6.47,0Zm35.58,12q-1.17-.35-1.59-.53l.51-2.41,1.54.54a8.85,8.85,0,0,0,2.8.36,5.51,5.51,0,0,0,2.54-.45,1.52,1.52,0,0,0,.83-1.44,1.92,1.92,0,0,0-.81-1.62,12.86,12.86,0,0,0-2.68-1.35q-.9-.36-1.73-.74a6.06,6.06,0,0,1-1.43-.89,3.85,3.85,0,0,1-1-1.23,3.93,3.93,0,0,1-.36-1.77,4,4,0,0,1,1.54-3.29,6.55,6.55,0,0,1,4.18-1.22,11.86,11.86,0,0,1,1.32.07q.66.08,1.23.18c.38.07.72.15,1,.23s.52.15.68.21l-.51,2.41a7.06,7.06,0,0,0-1.41-.5,9.13,9.13,0,0,0-2.32-.26,4.27,4.27,0,0,0-2,.47,1.54,1.54,0,0,0-.87,1.46,2,2,0,0,0,.2.9,2.08,2.08,0,0,0,.6.71,4.92,4.92,0,0,0,1,.59q.6.27,1.44.57,1.11.42,2,.83a6.23,6.23,0,0,1,1.49.95,3.63,3.63,0,0,1,.95,1.31,4.75,4.75,0,0,1,.33,1.88,3.73,3.73,0,0,1-1.61,3.28,8,8,0,0,1-4.59,1.11,12,12,0,0,1-3.26-.34Zm-68.75.08c-1-.18-1.82-.36-2.47-.54V7.45L97.16,7h0v8.39a7.59,7.59,0,0,1,1.55-.69,7.29,7.29,0,0,1,2.39-.36,7.12,7.12,0,0,1,3,.6,6.26,6.26,0,0,1,2.21,1.68,7.45,7.45,0,0,1,1.37,2.59,11.15,11.15,0,0,1,.47,3.31,9.93,9.93,0,0,1-.56,3.41A7.2,7.2,0,0,1,106,28.47a7,7,0,0,1-2.47,1.63,8.82,8.82,0,0,1-3.25.57,19.81,19.81,0,0,1-3.46-.27Zm1.8-13.23a5.76,5.76,0,0,0-1.47.81v9.9a9.27,9.27,0,0,0,1.19.23,14.56,14.56,0,0,0,1.91.1,4.66,4.66,0,0,0,3.61-1.49,6.09,6.09,0,0,0,1.35-4.23,10.17,10.17,0,0,0-.24-2.25,5.11,5.11,0,0,0-.78-1.82,3.78,3.78,0,0,0-1.4-1.2,4.52,4.52,0,0,0-2.06-.44,5.56,5.56,0,0,0-2.1.38Zm57.1,13.07A3.83,3.83,0,0,1,154.06,29a4.87,4.87,0,0,1-.89-2,13.15,13.15,0,0,1-.26-2.75v-14l2.8-.48v4.84h5.93V17h-5.93v7.22a8.66,8.66,0,0,0,.18,1.94,2.91,2.91,0,0,0,.54,1.2,2,2,0,0,0,.9.62,4,4,0,0,0,1.26.18,5.94,5.94,0,0,0,2-.28l1.07-.41.54,2.32a10.27,10.27,0,0,1-1.47.53,8.38,8.38,0,0,1-2.41.32,7.29,7.29,0,0,1-2.64-.4Zm-73.9-.12a4.89,4.89,0,0,1-2-1.49,6,6,0,0,1-1.08-2.27,11.81,11.81,0,0,1-.33-2.9V14.67h2.8v8.18a7.09,7.09,0,0,0,.9,4.09,3.51,3.51,0,0,0,3,1.23c.3,0,.61,0,.93,0l.9-.08.77-.09a2.23,2.23,0,0,0,.5-.1V14.67h2.8V29.86q-1,.24-2.54.51a21.8,21.8,0,0,1-3.65.27,7.74,7.74,0,0,1-3-.53Zm61.17.2v-15a19,19,0,0,1,2.46-.68,15.84,15.84,0,0,1,3.31-.32q.36,0,.83,0c.31,0,.62.07.92.12l.83.15a5,5,0,0,1,.56.14l-.48,2.44a9.3,9.3,0,0,0-1.1-.28,9.59,9.59,0,0,0-2-.17,7.3,7.3,0,0,0-1.55.17l-1,.23V30.31ZM63.19,6.08a3.63,3.63,0,1,1,3.64,3.63,3.63,3.63,0,0,1-3.64-3.63Z"
        /><path
            id="Combined_Shape-3"
            data-name="Combined Shape-3"
            d="M63.19,36.83a3.63,3.63,0,1,1,3.63,3.63h0A3.63,3.63,0,0,1,63.19,36.83ZM42.56,21.49a15.33,15.33,0,0,1,19-14.91,1.27,1.27,0,0,1,.75.86.6.6,0,0,0,0,.13,4.83,4.83,0,0,0,5.88,3.17,1.27,1.27,0,0,1,1,.3,15.29,15.29,0,0,1,4.07,9.49h-4.6a.92.92,0,0,1-.75-.69l0-.12a.75.75,0,0,1,0-.1h0a10.1,10.1,0,1,0,.07,3.25.92.92,0,0,1,.89-.68h4.45A15.29,15.29,0,0,1,69.05,32a1.3,1.3,0,0,1-1,.23,4.8,4.8,0,0,0-1.36-.2A4.85,4.85,0,0,0,62,35.65a1.27,1.27,0,0,1-.69.79A15.34,15.34,0,0,1,42.56,21.49Zm68,14.38V15.15c.66-.16,1.49-.34,2.48-.53a18.53,18.53,0,0,1,3.44-.28,8.8,8.8,0,0,1,3.25.57,7,7,0,0,1,2.47,1.63,7.23,7.23,0,0,1,1.58,2.57,9.92,9.92,0,0,1,.56,3.41,11.06,11.06,0,0,1-.47,3.28,7.46,7.46,0,0,1-1.37,2.59,6.26,6.26,0,0,1-2.21,1.68,7.11,7.11,0,0,1-3,.6,7.3,7.3,0,0,1-2.39-.36,7.55,7.55,0,0,1-1.55-.69v6.26Zm3.93-19a8,8,0,0,0-1.13.21V27a5.79,5.79,0,0,0,1.47.81,5.56,5.56,0,0,0,2.11.39,4.52,4.52,0,0,0,2.06-.44,3.81,3.81,0,0,0,1.4-1.2,5.13,5.13,0,0,0,.78-1.8,10,10,0,0,0,.24-2.24,6,6,0,0,0-1.35-4.21,4.68,4.68,0,0,0-3.61-1.48A16.48,16.48,0,0,0,114.49,16.92Zm15.8,13.19A6.7,6.7,0,0,1,128,28.44a7.75,7.75,0,0,1-1.52-2.59,10,10,0,0,1-.54-3.37,10,10,0,0,1,.54-3.35,7.71,7.71,0,0,1,1.52-2.6,6.72,6.72,0,0,1,2.33-1.67,7.71,7.71,0,0,1,5.9,0,6.72,6.72,0,0,1,2.33,1.67,7.71,7.71,0,0,1,1.52,2.6,10,10,0,0,1,.54,3.35,10,10,0,0,1-.54,3.37,7.75,7.75,0,0,1-1.52,2.59,6.7,6.7,0,0,1-2.33,1.67A7.7,7.7,0,0,1,130.29,30.11ZM130,18.29a6.76,6.76,0,0,0-1.19,4.2,6.76,6.76,0,0,0,1.19,4.2,4.15,4.15,0,0,0,6.47,0,6.76,6.76,0,0,0,1.19-4.2,6.76,6.76,0,0,0-1.19-4.2,4.15,4.15,0,0,0-6.47,0Zm35.58,12q-1.17-.35-1.59-.53l.51-2.41,1.54.54a8.85,8.85,0,0,0,2.8.36,5.51,5.51,0,0,0,2.54-.45,1.52,1.52,0,0,0,.83-1.44,1.92,1.92,0,0,0-.81-1.62,12.86,12.86,0,0,0-2.68-1.35q-.9-.36-1.73-.74a6.06,6.06,0,0,1-1.43-.89,3.85,3.85,0,0,1-1-1.23,3.93,3.93,0,0,1-.36-1.77,4,4,0,0,1,1.54-3.29,6.55,6.55,0,0,1,4.18-1.22,11.86,11.86,0,0,1,1.32.07q.66.08,1.23.18c.38.07.72.15,1,.23s.52.15.68.21l-.51,2.41a7.06,7.06,0,0,0-1.41-.5,9.13,9.13,0,0,0-2.32-.26,4.27,4.27,0,0,0-2,.47,1.54,1.54,0,0,0-.87,1.46,2,2,0,0,0,.2.9,2.08,2.08,0,0,0,.6.71,4.92,4.92,0,0,0,1,.59q.6.27,1.44.57,1.11.42,2,.83a6.23,6.23,0,0,1,1.49.95,3.63,3.63,0,0,1,.95,1.31,4.75,4.75,0,0,1,.33,1.88,3.73,3.73,0,0,1-1.61,3.28,8,8,0,0,1-4.59,1.11,12,12,0,0,1-3.26-.34Zm-68.75.08c-1-.18-1.82-.36-2.47-.54V7.45L97.16,7h0v8.39a7.59,7.59,0,0,1,1.55-.69,7.29,7.29,0,0,1,2.39-.36,7.12,7.12,0,0,1,3,.6,6.26,6.26,0,0,1,2.21,1.68,7.45,7.45,0,0,1,1.37,2.59,11.15,11.15,0,0,1,.47,3.31,9.93,9.93,0,0,1-.56,3.41A7.2,7.2,0,0,1,106,28.47a7,7,0,0,1-2.47,1.63,8.82,8.82,0,0,1-3.25.57,19.81,19.81,0,0,1-3.46-.27Zm1.8-13.23a5.76,5.76,0,0,0-1.47.81v9.9a9.27,9.27,0,0,0,1.19.23,14.56,14.56,0,0,0,1.91.1,4.66,4.66,0,0,0,3.61-1.49,6.09,6.09,0,0,0,1.35-4.23,10.17,10.17,0,0,0-.24-2.25,5.11,5.11,0,0,0-.78-1.82,3.78,3.78,0,0,0-1.4-1.2,4.52,4.52,0,0,0-2.06-.44,5.56,5.56,0,0,0-2.1.38Zm57.1,13.07A3.83,3.83,0,0,1,154.06,29a4.87,4.87,0,0,1-.89-2,13.15,13.15,0,0,1-.26-2.75v-14l2.8-.48v4.84h5.93V17h-5.93v7.22a8.66,8.66,0,0,0,.18,1.94,2.91,2.91,0,0,0,.54,1.2,2,2,0,0,0,.9.62,4,4,0,0,0,1.26.18,5.94,5.94,0,0,0,2-.28l1.07-.41.54,2.32a10.27,10.27,0,0,1-1.47.53,8.38,8.38,0,0,1-2.41.32,7.29,7.29,0,0,1-2.64-.4Zm-73.9-.12a4.89,4.89,0,0,1-2-1.49,6,6,0,0,1-1.08-2.27,11.81,11.81,0,0,1-.33-2.9V14.67h2.8v8.18a7.09,7.09,0,0,0,.9,4.09,3.51,3.51,0,0,0,3,1.23c.3,0,.61,0,.93,0l.9-.08.77-.09a2.23,2.23,0,0,0,.5-.1V14.67h2.8V29.86q-1,.24-2.54.51a21.8,21.8,0,0,1-3.65.27,7.74,7.74,0,0,1-3-.53Zm61.17.2v-15a19,19,0,0,1,2.46-.68,15.84,15.84,0,0,1,3.31-.32q.36,0,.83,0c.31,0,.62.07.92.12l.83.15a5,5,0,0,1,.56.14l-.48,2.44a9.3,9.3,0,0,0-1.1-.28,9.59,9.59,0,0,0-2-.17,7.3,7.3,0,0,0-1.55.17l-1,.23V30.31ZM63.19,6.08a3.63,3.63,0,1,1,3.64,3.63,3.63,3.63,0,0,1-3.64-3.63Z"
        /></g><path
        id="Combined_Shape-4"
        data-name="Combined Shape-4"
        d="M36.34,36.69H2.62A2.63,2.63,0,0,1,0,34.07V8.83A2.62,2.62,0,0,1,2.62,6.21H36.34A2.62,2.62,0,0,1,39,8.83V34.07A2.62,2.62,0,0,1,36.34,36.69ZM20.66,34.55h0a.7.7,0,0,0,0,1.4h3.78a.7.7,0,0,0,0-1.4ZM.4,8.9V34H38.56V8.9ZM19.9,7.37a.19.19,0,0,0-.18.18.18.18,0,0,0,.18.18h5.29a.18.18,0,1,0,0-.36H19.9Z"
    /><path
        id="Combined_Shape-5"
        data-name="Combined Shape-5"
        d="M53.85,42.93H38a2.63,2.63,0,0,1-2.62-2.62V2.62A2.63,2.63,0,0,1,38,0H53.85a2.63,2.63,0,0,1,2.62,2.62V40.31A2.63,2.63,0,0,1,53.85,42.93ZM43.47,40h0a.92.92,0,0,0,0,1.84h4.95a.92.92,0,0,0,0-1.84H43.47ZM42.26,2.09a.26.26,0,0,0-.25.26.25.25,0,0,0,.25.25h7.36a.25.25,0,1,0,.06-.5H42.26Z"
    /><path id="path102" class="cls-2" d="M56,38.95H35.85v-35H56Z" /></svg>
