<svg
    id="Layer_1"
    data-name="Layer 1"
    xmlns="http://www.w3.org/2000/svg"
    xmlns:xlink="http://www.w3.org/1999/xlink"
    viewBox="0 0 203.46 29.35"
><defs><style
        >.cls-1{fill:#fff;}.cls-2{fill:none;}.cls-3{clip-path:url(#clip-path);}.cls-4{mask:url(#mask);}.cls-5{fill:#1a1919;}.cls-6{fill:#e95420;}.cls-7{fill:#fffffe;}.cls-8{mask:url(#mask-2);}</style><clipPath
            id="clip-path"
            transform="translate(-0.2 -1)"
        ><rect class="cls-2" width="206" height="33" /></clipPath><mask
            id="mask"
            x="113.89"
            y="0"
            width="16.9"
            height="27.71"
            maskUnits="userSpaceOnUse"
        ><g transform="translate(-0.2 -1)"><g id="mask0"><path
                        class="cls-1"
                        d="M131,1v27.7h-16.9V1Z"
                    /></g></g></mask><mask
            id="mask-2"
            x="0"
            y="0"
            width="37.7"
            height="29.34"
            maskUnits="userSpaceOnUse"
        ><g transform="translate(-0.2 -1)"><g id="mask1"><path
                        class="cls-1"
                        d="M37.9,1V30.34H.2V1Z"
                    /></g></g></mask></defs><title>logo</title><g class="cls-3"><path
            d="M139.76,12.51h6v1.6h-6v8a8.86,8.86,0,0,0,.2,2.09,3,3,0,0,0,.64,1.22,2,2,0,0,0,1,.58,5.26,5.26,0,0,0,1.28.15,5.78,5.78,0,0,0,1.91-.26,9.47,9.47,0,0,0,1.13-.52l.46,1.57a7.22,7.22,0,0,1-1.42.61,7.32,7.32,0,0,1-2.2.32,6.92,6.92,0,0,1-2.35-.35,3.65,3.65,0,0,1-1.51-1.1,4.78,4.78,0,0,1-.78-1.86,12.8,12.8,0,0,1-.23-2.61V8.1l1.88-.35ZM161,20a9.45,9.45,0,0,1-.52,3.22,6.9,6.9,0,0,1-1.42,2.47,6.5,6.5,0,0,1-2.15,1.6,6.64,6.64,0,0,1-7.69-1.6,7.49,7.49,0,0,1-1.42-2.47,9.94,9.94,0,0,1-.49-3.22,9.94,9.94,0,0,1,.49-3.22,7.49,7.49,0,0,1,1.42-2.47,6.27,6.27,0,0,1,2.18-1.59,6.83,6.83,0,0,1,5.51,0,6,6,0,0,1,2.15,1.59,6.9,6.9,0,0,1,1.42,2.47A9.45,9.45,0,0,1,161,20Zm-2,0a7,7,0,0,0-1.31-4.47,4.56,4.56,0,0,0-7.08,0,7,7,0,0,0-1.3,4.47,7,7,0,0,0,1.3,4.47,4.61,4.61,0,0,0,7.08,0A7,7,0,0,0,159,20Zm16.61,7q-.84.23-2.26.52a17.75,17.75,0,0,1-3.48.29,7,7,0,0,1-2.81-.49,4.57,4.57,0,0,1-1.83-1.39,5.79,5.79,0,0,1-1-2.18,12.66,12.66,0,0,1-.29-2.81V12.51h1.89v7.8A13.31,13.31,0,0,0,166,23a4.5,4.5,0,0,0,.75,1.8,3.09,3.09,0,0,0,1.33,1,6.26,6.26,0,0,0,2,.29,16.17,16.17,0,0,0,2.32-.15,6.25,6.25,0,0,0,1.25-.26V12.51h1.89Zm10.21.84a8,8,0,0,1-3.07-.55,6,6,0,0,1-2.23-1.57,7.4,7.4,0,0,1-1.33-2.47,10.43,10.43,0,0,1-.46-3.19,10.54,10.54,0,0,1,.46-3.22,7.46,7.46,0,0,1,1.39-2.49,6,6,0,0,1,2.18-1.59,6.86,6.86,0,0,1,2.87-.58,11.86,11.86,0,0,1,2.26.2,5.73,5.73,0,0,1,1.65.52L189,14.51a6.06,6.06,0,0,0-1.3-.46,8.65,8.65,0,0,0-1.94-.17,4.59,4.59,0,0,0-3.8,1.62A7.14,7.14,0,0,0,180.72,20a9.92,9.92,0,0,0,.29,2.46,5.21,5.21,0,0,0,.93,1.91,4.79,4.79,0,0,0,1.68,1.25,6.55,6.55,0,0,0,2.52.43,6.73,6.73,0,0,0,2-.26,8.93,8.93,0,0,0,1.22-.49L189.8,27a6.74,6.74,0,0,1-1.65.55A9.08,9.08,0,0,1,185.83,27.82ZM192,27.5V5.34L193.85,5v7.95a10.93,10.93,0,0,1,1.88-.52,9.2,9.2,0,0,1,1.91-.2,7.44,7.44,0,0,1,2.9.49,4.43,4.43,0,0,1,1.86,1.42,5.2,5.2,0,0,1,1,2.18,12.72,12.72,0,0,1,.29,2.81V27.5h-1.89V19.73a13.31,13.31,0,0,0-.23-2.7,4.23,4.23,0,0,0-.73-1.8,2.65,2.65,0,0,0-1.33-1,6,6,0,0,0-2.12-.32,7.27,7.27,0,0,0-1.07.09q-.55.09-1,.2a9,9,0,0,0-.9.2,4,4,0,0,0-.49.17V27.5Z"
            transform="translate(-0.2 -1)"
        /><g class="cls-4"><path
                class="cls-5"
                d="M115.08,27.4h.24c.2,0,.38,0,.38-.24s-.17-.22-.32-.22h-.3Zm-.22-.64h.56c.34,0,.5.13.5.41a.37.37,0,0,1-.38.39l.41.63h-.24l-.39-.62h-.24v.62h-.22Zm.48,1.77a1,1,0,1,0-1-1.06A1,1,0,0,0,115.33,28.53Zm0-2.28a1.23,1.23,0,1,1-1.24,1.22,1.22,1.22,0,0,1,1.24-1.22Z"
                transform="translate(-0.2 -1)"
            /><path
                class="cls-6"
                d="M123.16,16.65A7.83,7.83,0,1,1,131,8.83a7.83,7.83,0,0,1-7.83,7.83"
                transform="translate(-0.2 -1)"
            /></g><path
            class="cls-7"
            d="M126.9,11a1,1,0,1,0,1.43-.38A1,1,0,0,0,126.9,11Zm-6.75-2.14a3,3,0,0,1,.28-1.29l-1.3-.73a4.55,4.55,0,0,0-.3,3.23A1.47,1.47,0,0,1,120,12a4.52,4.52,0,0,0,2.94,1.35l0-1.49A3.05,3.05,0,0,1,120.15,8.82Zm6.1,0a3.05,3.05,0,0,1-2.78,3l0,1.49A4.52,4.52,0,0,0,126.43,12a1.47,1.47,0,0,1,1.14-2,4.55,4.55,0,0,0-.3-3.23l-1.3.73A3,3,0,0,1,126.25,8.82ZM123.2,5.77a3,3,0,0,1,2.5,1.3L127,6.3a4.55,4.55,0,0,0-2.64-1.88,1.46,1.46,0,0,1-2.27,0,4.54,4.54,0,0,0-2.64,1.88l1.28.76A3,3,0,0,1,123.2,5.77ZM119.5,11a1,1,0,1,0-.38,1.43A1,1,0,0,0,119.5,11Zm4.75-7.46a1,1,0,1,0-1,1,1,1,0,0,0,1-1Z"
            transform="translate(-0.2 -1)"
        /><g class="cls-8"><path
                class="cls-5"
                d="M15.85,29.34q-1.19.3-3.15.63a27.05,27.05,0,0,1-4.53.33,9.61,9.61,0,0,1-3.76-.65A6.06,6.06,0,0,1,2,27.81,7.48,7.48,0,0,1,.61,25,14.62,14.62,0,0,1,.2,21.41V10.53H3.66V20.66q0,3.54,1.12,5.06a4.35,4.35,0,0,0,3.76,1.53q.56,0,1.15,0l1.12-.09.95-.11a2.79,2.79,0,0,0,.61-.13V10.53h3.46v18.8"
                transform="translate(-0.2 -1)"
            /><path
                class="cls-5"
                d="M24.3,26.88a11.14,11.14,0,0,0,1.47.28,17.79,17.79,0,0,0,2.37.13,5.75,5.75,0,0,0,4.47-1.84,7.5,7.5,0,0,0,1.68-5.23,12.54,12.54,0,0,0-.3-2.79,6.3,6.3,0,0,0-1-2.25,4.69,4.69,0,0,0-1.73-1.49,5.58,5.58,0,0,0-2.55-.54,6.87,6.87,0,0,0-2.61.48,7.14,7.14,0,0,0-1.83,1Zm0-15.49a9.35,9.35,0,0,1,1.92-.86,9,9,0,0,1,3-.45,8.79,8.79,0,0,1,3.71.74,7.71,7.71,0,0,1,2.74,2.09,9.19,9.19,0,0,1,1.69,3.2,13.77,13.77,0,0,1,.58,4.1,12.22,12.22,0,0,1-.69,4.23,8.89,8.89,0,0,1-2,3.18,8.61,8.61,0,0,1-3.05,2,10.87,10.87,0,0,1-4,.71A24.4,24.4,0,0,1,23.89,30q-1.86-.34-3.05-.67V1.6L24.3,1V11.39Z"
                transform="translate(-0.2 -1)"
            /></g><path
            class="cls-5"
            d="M57.3,29.33q-1.2.3-3.16.63a27.2,27.2,0,0,1-4.54.34,9.66,9.66,0,0,1-3.78-.65,6.08,6.08,0,0,1-2.47-1.85A7.47,7.47,0,0,1,42,25a14.63,14.63,0,0,1-.41-3.6V10.5h3.48V20.64q0,3.54,1.12,5.07A4.37,4.37,0,0,0,50,27.24q.56,0,1.16,0l1.12-.09,1-.11a2.79,2.79,0,0,0,.62-.13V10.5H57.3V29.33"
            transform="translate(-0.2 -1)"
        /><path
            class="cls-5"
            d="M62.2,11.07q1.2-.3,3.18-.63a27.57,27.57,0,0,1,4.56-.34,9.88,9.88,0,0,1,3.85.65,6,6,0,0,1,2.45,1.83,7.07,7.07,0,0,1,1.29,2.82A16.34,16.34,0,0,1,77.9,19V29.9H74.42V19.76a16.53,16.53,0,0,0-.24-3.06,5.16,5.16,0,0,0-.8-2.05,3.18,3.18,0,0,0-1.5-1.14,6.59,6.59,0,0,0-2.32-.35q-.56,0-1.16,0l-1.14.09q-.54.06-1,.13l-.62.11V29.9H62.2V11.07"
            transform="translate(-0.2 -1)"
        /><path
            class="cls-5"
            d="M85.92,10.55h7.35v2.91H85.92v8.95a10.73,10.73,0,0,0,.22,2.4,3.61,3.61,0,0,0,.67,1.49,2.41,2.41,0,0,0,1.12.76,5,5,0,0,0,1.57.22A7.34,7.34,0,0,0,92,26.94q.93-.35,1.27-.5l.75,2.83a13.78,13.78,0,0,1-1.85.67,10.15,10.15,0,0,1-3,.41,9,9,0,0,1-3.26-.5,4.75,4.75,0,0,1-2.07-1.51,6,6,0,0,1-1.1-2.48,16.3,16.3,0,0,1-.32-3.41V5.15l3.47-.6v6"
            transform="translate(-0.2 -1)"
        /><path
            class="cls-5"
            d="M112.2,29.33q-1.2.3-3.16.63a27.19,27.19,0,0,1-4.54.34,9.66,9.66,0,0,1-3.78-.65,6.08,6.08,0,0,1-2.47-1.85A7.48,7.48,0,0,1,96.91,25a14.62,14.62,0,0,1-.41-3.6V10.5H100V20.64q0,3.54,1.12,5.07a4.37,4.37,0,0,0,3.78,1.53q.56,0,1.16,0l1.12-.09,1-.11a2.78,2.78,0,0,0,.62-.13V10.5h3.48V29.33"
            transform="translate(-0.2 -1)"
        /></g></svg>
