<svg
    id="Layer_1"
    data-name="Layer 1"
    xmlns="http://www.w3.org/2000/svg"
    viewBox="0 0 57 42"
><defs><style
        >.cls-1,.cls-3{fill:#fff;}.cls-1{stroke:#000;stroke-miterlimit:10;}.cls-2{fill:#c4c4c4;}</style></defs><title
    >win</title><g id="Group_14" data-name="Group 14"><path
            id="Combined_Shape"
            data-name="Combined Shape"
            d="M34.5,39.2V22.4H57V42ZM12,36.4v-14H31.69V38.85ZM34.5,19.6V2.8L57,0V19.6ZM12,19.6V5.6L31.69,3.15V19.6Z"
            transform="translate(0)"
        /><g id="Yumi_Face" data-name="Yumi Face"><g
                id="Group_2"
                data-name="Group 2"
            ><path
                    id="Combined-Shape"
                    class="cls-1"
                    d="M16.82,11q2.63,0,5.26,0a9.51,9.51,0,0,1,9.2,9.67v.56A9.51,9.51,0,0,1,22.12,31q-2.61,0-5.21,0t-5.12,0a9.51,9.51,0,0,1-9.16-9.67v-.57A9.51,9.51,0,0,1,11.84,11q2.17,0,4.36,0Z"
                    transform="translate(0)"
                /><path
                    id="Combined-Shape-path"
                    class="cls-2"
                    d="M16.82,11q2.63,0,5.26,0a9.51,9.51,0,0,1,9.2,9.67v.56A9.51,9.51,0,0,1,22.12,31q-2.61,0-5.21,0l-.72-20Z"
                    transform="translate(0)"
                /><path
                    id="Rectangle"
                    d="M12.09,14.89q2.38,0,4.81,0t5,0a6.18,6.18,0,0,1,0,12.34q-2.47,0-4.93,0t-4.86,0a6.18,6.18,0,0,1,0-12.35Z"
                    transform="translate(0)"
                /><path
                    id="Face"
                    class="cls-3"
                    d="M14.65,23h4.69a2.53,2.53,0,0,1-2.39,2.11A2.58,2.58,0,0,1,14.65,23Zm4.74-2.16a1.85,1.85,0,1,1,3.69-.12s0,.08,0,.12a1.85,1.85,0,1,1-3.69.12S19.39,20.92,19.39,20.88Zm-8.88,0a1.85,1.85,0,1,1,3.7,0h0a1.85,1.85,0,1,1-3.7,0Z"
                    transform="translate(0)"
                /><path
                    id="Combined_Shape-2"
                    data-name="Combined Shape-2"
                    d="M31.64,20.68a12.14,12.14,0,0,0-.47-2.74l0-.1.71,0a2,2,0,0,1,2.06,1.9v0L34,21.29a2,2,0,0,1-1.83,2.14h0l-.71,0A11.11,11.11,0,0,0,31.64,20.68ZM1.86,23.44A2,2,0,0,1,0,21.29l.08-1.57a2,2,0,0,1,2.05-1.93h0l.71,0a12.15,12.15,0,0,0-.5,2.85,11.11,11.11,0,0,0,.22,2.79Z"
                    transform="translate(0)"
                /></g></g></g></svg>
